<svg width="1400" height="130" viewBox="0 0 370.42 34.396" xmlns="http://www.w3.org/2000/svg" xmlns:xlink="http://www.w3.org/1999/xlink"><defs><radialGradient id="i" cx="174.12" cy="47.035" r="25.725" gradientTransform="matrix(1 0 0 .16189 0 39.421)" gradientUnits="userSpaceOnUse"><stop offset="0"/><stop stop-opacity="0" offset="1"/></radialGradient><radialGradient id="n" cx="107.49" cy="78.19" r="23.68" gradientTransform="matrix(1.0788 -.00294 .00025 .09218 -19.249 59.324)" gradientUnits="userSpaceOnUse"><stop stop-color="#faa" offset="0"/><stop stop-color="red" offset="1"/></radialGradient><radialGradient id="o" cx="60.898" cy="184.09" r="7.673" gradientTransform="translate(-34.786 -229.86) scale(1.0345)" gradientUnits="userSpaceOnUse" xlink:href="#a"/><radialGradient id="q" cx="60.898" cy="184.09" r="7.673" gradientTransform="matrix(1 0 0 1.0011 569.74 -463.71)" gradientUnits="userSpaceOnUse" xlink:href="#a"/><radialGradient id="r" cx="230.16" cy="695.78" r="50" gradientTransform="matrix(.26458 0 0 .2643 -38.061 12.64)" gradientUnits="userSpaceOnUse" xlink:href="#b"/><radialGradient id="u" cx="230.16" cy="695.78" r="50" gradientTransform="translate(569.9 -463.38) scale(.26458)" gradientUnits="userSpaceOnUse" xlink:href="#b"/><radialGradient id="v" cx="60.898" cy="184.09" r="7.673" gradientTransform="translate(4.636 -209.82) scale(1.0345)" gradientUnits="userSpaceOnUse" xlink:href="#a"/><radialGradient id="w" cx="60.898" cy="184.09" r="7.673" gradientTransform="translate(6.736 -203.47)" gradientUnits="userSpaceOnUse"><stop stop-color="#00f" offset="0"/><stop stop-color="#0000ec" offset="1"/></radialGradient><radialGradient id="x" cx="230.16" cy="695.78" r="50" gradientTransform="matrix(.26458 0 0 .2643 6.736 -203.28)" gradientUnits="userSpaceOnUse"><stop stop-color="#00f" offset="0"/><stop stop-color="#0000ec" offset=".58"/><stop stop-color="#0000de" offset="1"/></radialGradient><radialGradient id="y" cx="60.898" cy="184.09" r="7.673" gradientTransform="translate(-30.628 -172.98) scale(1.0345)" gradientUnits="userSpaceOnUse" xlink:href="#a"/><radialGradient id="z" cx="60.898" cy="184.09" r="7.673" gradientTransform="translate(-28.528 -166.63)" gradientUnits="userSpaceOnUse"><stop stop-color="#00be00" offset="0"/><stop stop-color="#00b000" offset="1"/></radialGradient><radialGradient id="A" cx="230.16" cy="695.78" r="50" gradientTransform="matrix(.26458 0 0 .2643 -28.528 -166.44)" gradientUnits="userSpaceOnUse"><stop stop-color="#00be00" offset="0"/><stop stop-color="#00b000" offset=".58"/><stop stop-color="#00a500" offset="1"/></radialGradient><radialGradient id="B" cx="60.898" cy="184.09" r="7.673" gradientTransform="translate(11.327 -163.91) scale(1.0345)" gradientUnits="userSpaceOnUse" xlink:href="#a"/><radialGradient id="C" cx="60.898" cy="184.09" r="7.673" gradientTransform="translate(13.427 -157.56)" gradientUnits="userSpaceOnUse"><stop stop-color="#ff8c00" offset="0"/><stop stop-color="#ec8200" offset="1"/></radialGradient><radialGradient id="D" cx="230.16" cy="695.78" r="50" gradientTransform="matrix(.26458 0 0 .2643 13.427 -157.37)" gradientUnits="userSpaceOnUse"><stop stop-color="#ff8c00" offset="0"/><stop stop-color="#ec8200" offset=".58"/><stop stop-color="#de7a00" offset="1"/></radialGradient><radialGradient id="E" cx="60.898" cy="184.09" r="7.673" gradientTransform="translate(-87.702 -173.36) scale(1.0345)" gradientUnits="userSpaceOnUse" xlink:href="#a"/><radialGradient id="F" cx="60.898" cy="184.09" r="7.673" gradientTransform="translate(-85.603 -167.01)" gradientUnits="userSpaceOnUse"><stop stop-color="#8a2be2" offset="0"/><stop stop-color="#8028d1" offset="1"/></radialGradient><radialGradient id="G" cx="230.16" cy="695.78" r="50" gradientTransform="matrix(.26458 0 0 .2643 -85.603 -166.82)" gradientUnits="userSpaceOnUse"><stop stop-color="red" offset="0"/><stop stop-color="#8028d1" offset=".58"/><stop stop-color="#7825c5" offset="1"/></radialGradient><clipPath id="f"><path d="M111.64 111.27h8.276l2.144 13.096h-12.565z" fill="#999" fill-rule="evenodd" stroke-width=".11"/></clipPath><clipPath id="g"><path fill="#ccc" fill-rule="evenodd" stroke-width=".265" d="M99.566 83.936h.174v1.509h-.174z"/></clipPath><clipPath id="h"><path fill="#e3dfd3" stroke-width=".205" d="M26.154 126.22h56.318v7.61H26.154z"/></clipPath><clipPath id="c"><rect x="148.39" y="42.871" width="51.449" height="8.329" ry="0" fill="#00f" fill-rule="evenodd" stroke-width=".37"/></clipPath><clipPath id="j"><rect x="148.39" y="42.634" width="11.773" height="8.566" ry="0" fill="#00f" fill-rule="evenodd" stroke-width=".265"/></clipPath><clipPath id="m"><rect transform="translate(-77.565 23.218)" x="148.39" y="42.871" width="51.449" height="13.003" ry="2.432" clip-path="url(#c)" fill="red" fill-rule="evenodd" stroke="url(#radialGradient1137)" stroke-width=".269"/></clipPath><clipPath id="s"><circle cx="23.062" cy="196.46" r="12.568" fill="#0ff" fill-rule="evenodd" stroke-width=".47"/></clipPath><linearGradient id="k" x1="148.39" x2="179.04" y1="46.968" y2="45.731" gradientUnits="userSpaceOnUse" xlink:href="#d"/><linearGradient id="d"><stop stop-color="red" offset="0"/><stop stop-color="#fff" offset="1"/></linearGradient><linearGradient id="l" x1="148.39" x2="148.49" y1="46.968" y2="44.84" gradientUnits="userSpaceOnUse" xlink:href="#e"/><linearGradient id="e"><stop stop-color="red" offset="0"/><stop stop-color="red" stop-opacity="0" offset="1"/></linearGradient><linearGradient id="a"><stop stop-color="red" offset="0"/><stop stop-color="#ec0000" offset="1"/></linearGradient><linearGradient id="b"><stop stop-color="red" offset="0"/><stop stop-color="#ec0000" offset=".58"/><stop stop-color="#de0000" offset="1"/></linearGradient><filter id="p" color-interpolation-filters="sRGB"><feFlood flood-color="#000" flood-opacity=".498" result="flood"/><feComposite in="flood" in2="SourceGraphic" operator="in" result="composite1"/><feGaussianBlur in="composite1" result="blur" stdDeviation=".2"/><feOffset result="offset"/><feComposite in="offset" in2="offset" operator="atop" result="composite2"/></filter><filter id="t" color-interpolation-filters="sRGB"><feFlood flood-color="#000" flood-opacity=".498" result="flood"/><feComposite in="flood" in2="SourceGraphic" operator="in" result="composite1"/><feGaussianBlur in="composite1" result="blur" stdDeviation=".2"/><feOffset result="offset"/><feComposite in="offset" in2="offset" operator="atop" result="composite2"/></filter></defs><g fill-rule="evenodd" transform="matrix(.8 0 0 .8 177.49 -101.694)"><path d="M80.167 149.81h56.155l14.552 13.096H65.615z" fill="#9d9d9d"/><rect x="65.615" y="162.91" width="85.259" height="7.197" ry="0" fill="#333"/><path fill="#4d4d4d" d="M65.623 163.66h85.249v5.682H65.623z"/></g><g fill="none" stroke="#000"><path d="M264.082 18.162v10.474" stroke-width=".16"/><path transform="matrix(.8 0 0 .8 185.594 -70.862)" d="M111.92 110.76l8.163 14.711" clip-path="url(#f)" stroke-width=".226"/><path transform="matrix(-.8 0 0 .8 342.666 -70.862)" d="M111.92 110.76l8.163 14.711" clip-path="url(#f)" stroke-width=".226"/></g><path fill="#4d4d4d" fill-rule="evenodd" d="M255.365 20.088h17.44v6.617h-17.44z"/><path fill="#f9f9f9" fill-rule="evenodd" d="M255.765 20.487h16.64v5.817h-16.64z"/><g transform="matrix(.8 0 0 .8 179.11 -50.956)" fill-rule="evenodd" stroke-width=".661"><circle cx="102.1" cy="92.937" r="2.5"/><circle cx="101.87" cy="92.937" r="2.5" fill="#666"/></g><g fill-rule="evenodd" stroke-width=".661" transform="matrix(.8 0 0 .8 185.884 -50.956)"><circle cx="102.1" cy="92.937" r="2.5"/><circle cx="101.87" cy="92.937" r="2.5" fill="#ff0"/></g><g transform="matrix(.8 0 0 .8 178.43 -46.504)" fill-rule="evenodd" stroke-width=".526"><circle cx="97.52" cy="84.536" r=".5"/><circle cx="97.47" cy="84.536" r=".5" fill="gray"/><circle transform="rotate(79.231 98.644 83.285)" cx="99.64" cy="84.672" r=".5" clip-path="url(#g)" fill="#ccc"/></g><g transform="rotate(34 234.875 334.31) scale(.8)" fill-rule="evenodd" stroke-width=".526"><circle cx="97.52" cy="84.536" r=".5"/><circle cx="97.47" cy="84.536" r=".5" fill="gray"/><circle transform="translate(-2.183 -.136)" cx="99.64" cy="84.672" r=".5" clip-path="url(#g)" fill="#ccc"/></g><g transform="matrix(.8 0 0 .8 193.747 -46.504)" fill-rule="evenodd" stroke-width=".526"><circle cx="97.52" cy="84.536" r=".5"/><circle cx="97.47" cy="84.536" r=".5" fill="gray"/><circle transform="rotate(-24.083 98.242 89.721)" cx="99.64" cy="84.672" r=".5" clip-path="url(#g)" fill="#ccc"/></g><g transform="matrix(.8 0 0 .8 193.748 -41.965)" fill-rule="evenodd" stroke-width=".526"><circle cx="97.52" cy="84.536" r=".5"/><circle cx="97.47" cy="84.536" r=".5" fill="gray"/><circle transform="rotate(83.754 98.637 83.386)" cx="99.64" cy="84.672" r=".5" clip-path="url(#g)" fill="#ccc"/></g><g transform="matrix(.8 0 0 .8 185.148 -48.435)" fill-rule="evenodd" stroke-width=".526"><circle cx="97.52" cy="84.536" r=".5"/><circle cx="97.47" cy="84.536" r=".5" fill="gray"/><circle transform="rotate(50.845 98.705 82.307)" cx="99.64" cy="84.672" r=".5" clip-path="url(#g)" fill="#ccc"/></g><g transform="matrix(.8 0 0 .8 182.416 -42.68)" fill-rule="evenodd" stroke-width=".526"><circle cx="97.52" cy="84.536" r=".5"/><circle cx="97.47" cy="84.536" r=".5" fill="gray"/><circle transform="translate(-2.183 -.136)" cx="99.64" cy="84.672" r=".5" clip-path="url(#g)" fill="#ccc"/></g><g transform="matrix(.8 0 0 .8 173.375 -48.435)" fill-rule="evenodd" stroke-width=".526"><circle cx="97.52" cy="84.536" r=".5"/><circle cx="97.47" cy="84.536" r=".5" fill="gray"/><circle transform="rotate(8.593 99.469 70.076)" cx="99.64" cy="84.672" r=".5" clip-path="url(#g)" fill="#ccc"/></g><g transform="matrix(.8 0 0 .8 175.283 -48.435)" fill-rule="evenodd" stroke-width=".526"><circle cx="97.52" cy="84.536" r=".5"/><circle cx="97.47" cy="84.536" r=".5" fill="gray"/><circle transform="rotate(-32.649 98.328 88.331)" cx="99.64" cy="84.672" r=".5" clip-path="url(#g)" fill="#ccc"/></g><g transform="matrix(.8 0 0 .8 197.002 -48.435)" fill-rule="evenodd" stroke-width=".526"><circle cx="97.52" cy="84.536" r=".5"/><circle cx="97.47" cy="84.536" r=".5" fill="gray"/><circle transform="rotate(81.479 98.641 83.337)" cx="99.64" cy="84.672" r=".5" clip-path="url(#g)" fill="#ccc"/></g><g transform="matrix(.8 0 0 .8 198.91 -48.435)" fill-rule="evenodd" stroke-width=".526"><circle cx="97.52" cy="84.536" r=".5"/><circle cx="97.47" cy="84.536" r=".5" fill="gray"/><circle transform="rotate(-71.476 98.467 86.121)" cx="99.64" cy="84.672" r=".5" clip-path="url(#g)" fill="#ccc"/></g><g transform="matrix(.8 0 0 .8 185.148 -39.968)" fill-rule="evenodd" stroke-width=".526"><circle cx="97.52" cy="84.536" r=".5"/><circle cx="97.47" cy="84.536" r=".5" fill="gray"/><circle transform="rotate(84.621 98.636 83.405)" cx="99.64" cy="84.672" r=".5" clip-path="url(#g)" fill="#ccc"/></g><g transform="matrix(.8 0 0 .8 187.056 -39.968)" fill-rule="evenodd" stroke-width=".526"><circle cx="97.52" cy="84.536" r=".5"/><circle cx="97.47" cy="84.536" r=".5" fill="gray"/><circle transform="rotate(-65.588 98.455 86.298)" cx="99.64" cy="84.672" r=".5" clip-path="url(#g)" fill="#ccc"/></g><g transform="matrix(.8 0 0 .8 168.662 -39.968)" fill-rule="evenodd" stroke-width=".526"><circle cx="97.52" cy="84.536" r=".5"/><circle cx="97.47" cy="84.536" r=".5" fill="gray"/><circle transform="rotate(83.994 98.637 83.391)" cx="99.64" cy="84.672" r=".5" clip-path="url(#g)" fill="#ccc"/></g><g transform="matrix(.8 0 0 .8 170.57 -39.968)" fill-rule="evenodd" stroke-width=".526"><circle cx="97.52" cy="84.536" r=".5"/><circle cx="97.47" cy="84.536" r=".5" fill="gray"/><circle transform="rotate(-53.44 98.426 86.772)" cx="99.64" cy="84.672" r=".5" clip-path="url(#g)" fill="#ccc"/></g><g transform="matrix(.8 0 0 .8 201.658 -39.968)" fill-rule="evenodd" stroke-width=".526"><circle cx="97.52" cy="84.536" r=".5"/><circle cx="97.47" cy="84.536" r=".5" fill="gray"/><circle transform="rotate(-27.78 98.285 89.018)" cx="99.64" cy="84.672" r=".5" clip-path="url(#g)" fill="#ccc"/></g><g transform="matrix(.8 0 0 .8 203.567 -39.968)" fill-rule="evenodd" stroke-width=".526"><circle cx="97.52" cy="84.536" r=".5"/><circle cx="97.47" cy="84.536" r=".5" fill="gray"/><circle transform="rotate(86.464 98.634 83.443)" cx="99.64" cy="84.672" r=".5" clip-path="url(#g)" fill="#ccc"/></g><path fill-rule="evenodd" d="M230.788 30.034h66.6v2.946h-66.6z"/><g transform="matrix(.8 0 0 .8 222.586 -88.902)" clip-path="url(#h)" fill-rule="evenodd"><rect transform="translate(-122.24 83.345)" x="148.39" y="42.871" width="51.449" height="13.003" ry="2.432" clip-path="url(#c)" fill="#ff5d5d" stroke="url(#i)" stroke-width=".269"/><rect transform="matrix(2.0001 0 0 1 -270.64 83.345)" x="148.39" y="42.871" width="51.449" height="13.003" ry="2.432" clip-path="url(#j)" fill="url(#k)" stroke="url(#l)" stroke-width=".269"/><rect transform="matrix(-2.0001 0 0 1 374.4 83.345)" x="148.39" y="42.871" width="51.449" height="13.003" ry="2.432" clip-path="url(#j)" fill="url(#k)" stroke="url(#l)" stroke-width=".269"/><ellipse transform="translate(-44.673 60.128)" cx="96.729" cy="66.216" rx="23.68" ry="1.191" clip-path="url(#m)" fill="url(#n)"/></g><g transform="matrix(1.3 0 0 1.3 -678.66 380.27)" fill-rule="evenodd"><ellipse cx="630.64" cy="-279.42" rx="12.568" ry="12.581" fill="#94fd5c"/><circle transform="matrix(1 0 0 1.0011 602.43 -239.95)" cx="28.212" cy="-39.424" r="7.938" fill="url(#o)" filter="url(#p)"/><ellipse cx="630.64" cy="-279.42" rx="7.673" ry="7.681" fill="url(#q)"/><g fill="url(#r)" stroke-width=".143"><path transform="matrix(1 0 0 1.0011 607.58 -476.09)" d="M23.63 183.33v3.968a9.26 9.26 0 018.467 9.221 9.26 9.26 0 01-.84 3.832l3.45 1.972a13.23 13.23 0 001.358-5.804c-.008-6.992-5.456-12.77-12.435-13.189z" clip-path="url(#s)" filter="url(#t)"/><path transform="matrix(-.48943 -.87296 .87204 -.48995 470.61 -163.07)" d="M23.63 183.33v3.968a9.26 9.26 0 018.467 9.221 9.26 9.26 0 01-.84 3.832l3.45 1.972a13.23 13.23 0 001.358-5.804c-.008-6.992-5.456-12.77-12.435-13.189z" clip-path="url(#s)" filter="url(#t)"/><path transform="matrix(-.50215 .86569 -.86478 -.50268 812.09 -200.65)" d="M23.63 183.33v3.968a9.26 9.26 0 018.467 9.221 9.26 9.26 0 01-.84 3.832l3.45 1.972a13.23 13.23 0 001.358-5.804c-.008-6.992-5.456-12.77-12.435-13.189z" clip-path="url(#s)" filter="url(#t)"/></g><path d="M630-292.52a13.229 13.243 0 00-12.435 13.215 13.229 13.243 0 001.39 5.897l3.423-2.058a9.26 9.27 0 01-.844-3.84 9.26 9.27 0 018.466-9.229zm1.587.012v3.972a9.26 9.27 0 018.467 9.231 9.26 9.27 0 01-.84 3.836l3.45 1.974a13.229 13.243 0 001.359-5.81 13.229 13.243 0 00-12.435-13.203zm-8.432 18.428l-3.408 2.05a13.229 13.243 0 0011.046 5.969 13.229 13.243 0 0011.092-6.05l-3.443-1.969a9.26 9.27 0 01-7.649 4.046 9.26 9.27 0 01-7.638-4.046z" fill="url(#u)"/></g><g transform="matrix(1 0 0 1.0011 114.77 40.57)" fill-rule="evenodd"><circle cx="67.634" cy="-19.379" r="12.568" fill="#94fd5c"/><circle cx="67.634" cy="-19.379" r="7.938" fill="url(#v)" filter="url(#p)"/><circle cx="67.634" cy="-19.379" r="7.673" fill="url(#w)"/><g fill="url(#r)" stroke-width=".143"><path transform="translate(44.572 -215.84)" d="M23.63 183.33v3.968a9.26 9.26 0 018.467 9.221 9.26 9.26 0 01-.84 3.832l3.45 1.972a13.23 13.23 0 001.358-5.804c-.008-6.992-5.456-12.77-12.435-13.189z" clip-path="url(#s)" filter="url(#t)"/><path transform="rotate(240.7 -17.845 75.473)" d="M23.63 183.33v3.968a9.26 9.26 0 018.467 9.221 9.26 9.26 0 01-.84 3.832l3.45 1.972a13.23 13.23 0 001.358-5.804c-.008-6.992-5.456-12.77-12.435-13.189z" clip-path="url(#s)" filter="url(#t)"/><path transform="rotate(120.14 107.47 101.35)" d="M23.63 183.33v3.968a9.26 9.26 0 018.467 9.221 9.26 9.26 0 01-.84 3.832l3.45 1.972a13.23 13.23 0 001.358-5.804c-.008-6.992-5.456-12.77-12.435-13.189z" clip-path="url(#s)" filter="url(#t)"/></g><path d="M66.84-32.594a13.229 13.229 0 00-12.435 13.201 13.229 13.229 0 001.39 5.891l3.423-2.056a9.26 9.26 0 01-.844-3.835 9.26 9.26 0 018.466-9.22zm1.587.012v3.968a9.26 9.26 0 018.467 9.221 9.26 9.26 0 01-.84 3.832l3.45 1.972a13.229 13.229 0 001.359-5.804 13.229 13.229 0 00-12.435-13.189zm-8.431 18.408l-3.409 2.048a13.229 13.229 0 0011.046 5.962 13.229 13.229 0 0011.092-6.042l-3.443-1.968a9.26 9.26 0 01-7.649 4.041 9.26 9.26 0 01-7.638-4.041z" fill="url(#x)"/></g><g transform="matrix(.7 0 0 .70074 55.57 12.9)" fill-rule="evenodd"><circle cx="32.369" cy="17.461" r="12.568" fill="#94fd5c"/><circle cx="32.369" cy="17.461" r="7.938" fill="url(#y)" filter="url(#p)"/><circle cx="32.369" cy="17.461" r="7.673" fill="url(#z)"/><g fill="url(#r)" stroke-width=".143"><path transform="translate(9.307 -179)" d="M23.63 183.33v3.968a9.26 9.26 0 018.467 9.221 9.26 9.26 0 01-.84 3.832l3.45 1.972a13.23 13.23 0 001.358-5.804c-.008-6.992-5.456-12.77-12.435-13.189z" clip-path="url(#s)" filter="url(#t)"/><path transform="rotate(240.7 -24.693 104.22)" d="M23.63 183.33v3.968a9.26 9.26 0 018.467 9.221 9.26 9.26 0 01-.84 3.832l3.45 1.972a13.23 13.23 0 001.358-5.804c-.008-6.992-5.456-12.77-12.435-13.189z" clip-path="url(#s)" filter="url(#t)"/><path transform="rotate(120.14 79.234 109.62)" d="M23.63 183.33v3.968a9.26 9.26 0 018.467 9.221 9.26 9.26 0 01-.84 3.832l3.45 1.972a13.23 13.23 0 001.358-5.804c-.008-6.992-5.456-12.77-12.435-13.189z" clip-path="url(#s)" filter="url(#t)"/></g><path d="M31.576 4.246a13.229 13.229 0 00-12.435 13.201 13.229 13.229 0 001.39 5.891l3.423-2.056a9.26 9.26 0 01-.844-3.835 9.26 9.26 0 018.466-9.22zm1.587.012v3.968a9.26 9.26 0 018.467 9.221 9.26 9.26 0 01-.84 3.832l3.45 1.972a13.229 13.229 0 001.359-5.804A13.229 13.229 0 0033.164 4.258zm-8.431 18.408l-3.409 2.048a13.229 13.229 0 0011.046 5.962 13.229 13.229 0 0011.092-6.042l-3.443-1.968a9.26 9.26 0 01-7.649 4.041 9.26 9.26 0 01-7.638-4.041z" fill="url(#A)"/></g><g transform="matrix(1.15 0 0 1.1512 261.644 -11.36)" fill-rule="evenodd"><circle cx="74.325" cy="26.533" r="12.568" fill="#94fd5c"/><circle cx="74.325" cy="26.533" r="7.938" fill="url(#B)" filter="url(#p)"/><circle cx="74.325" cy="26.533" r="7.673" fill="url(#C)"/><g fill="url(#r)" stroke-width=".143"><path transform="translate(51.263 -169.93)" d="M23.63 183.33v3.968a9.26 9.26 0 018.467 9.221 9.26 9.26 0 01-.84 3.832l3.45 1.972a13.23 13.23 0 001.358-5.804c-.008-6.992-5.456-12.77-12.435-13.189z" clip-path="url(#s)" filter="url(#t)"/><path transform="rotate(240.7 -1.06 96.47)" d="M23.63 183.33v3.968a9.26 9.26 0 018.467 9.221 9.26 9.26 0 01-.84 3.832l3.45 1.972a13.23 13.23 0 001.358-5.804c-.008-6.992-5.456-12.77-12.435-13.189z" clip-path="url(#s)" filter="url(#t)"/><path transform="rotate(120.14 97.6 126.23)" d="M23.63 183.33v3.968a9.26 9.26 0 018.467 9.221 9.26 9.26 0 01-.84 3.832l3.45 1.972a13.23 13.23 0 001.358-5.804c-.008-6.992-5.456-12.77-12.435-13.189z" clip-path="url(#s)" filter="url(#t)"/></g><path d="M73.531 13.317a13.229 13.229 0 00-12.435 13.201 13.229 13.229 0 001.39 5.891l3.423-2.056a9.26 9.26 0 01-.844-3.835 9.26 9.26 0 018.466-9.22zm1.587.012v3.968a9.26 9.26 0 018.467 9.221 9.26 9.26 0 01-.84 3.832l3.45 1.972a13.229 13.229 0 001.359-5.804A13.229 13.229 0 0075.119 13.33zm-8.431 18.408l-3.409 2.048a13.229 13.229 0 0011.046 5.962 13.229 13.229 0 0011.092-6.042l-3.443-1.968a9.26 9.26 0 01-7.649 4.042 9.26 9.26 0 01-7.638-4.042z" fill="url(#D)"/></g><g transform="matrix(.9 0 0 .90095 42.23 7.1)" fill-rule="evenodd"><circle cx="-24.705" cy="17.083" r="12.568" fill="#94fd5c"/><circle cx="-24.705" cy="17.083" r="7.938" fill="url(#E)" filter="url(#p)"/><circle cx="-24.705" cy="17.083" r="7.673" fill="url(#F)"/><g fill="url(#r)" stroke-width=".143"><path transform="translate(-47.767 -179.38)" d="M23.63 183.33v3.968a9.26 9.26 0 018.467 9.221 9.26 9.26 0 01-.84 3.832l3.45 1.972a13.23 13.23 0 001.358-5.804c-.008-6.992-5.456-12.77-12.435-13.189z" clip-path="url(#s)" filter="url(#t)"/><path transform="rotate(240.7 -53.34 120.74)" d="M23.63 183.33v3.968a9.26 9.26 0 018.467 9.221 9.26 9.26 0 01-.84 3.832l3.45 1.972a13.23 13.23 0 001.358-5.804c-.008-6.992-5.456-12.77-12.435-13.189z" clip-path="url(#s)" filter="url(#t)"/><path transform="rotate(120.14 50.805 93.003)" d="M23.63 183.33v3.968a9.26 9.26 0 018.467 9.221 9.26 9.26 0 01-.84 3.832l3.45 1.972a13.23 13.23 0 001.358-5.804c-.008-6.992-5.456-12.77-12.435-13.189z" clip-path="url(#s)" filter="url(#t)"/></g><path d="M-25.499 3.868a13.229 13.229 0 00-12.435 13.201 13.229 13.229 0 001.39 5.891l3.423-2.056a9.26 9.26 0 01-.844-3.835 9.26 9.26 0 018.466-9.22zm1.587.012v3.968a9.26 9.26 0 018.467 9.221 9.26 9.26 0 01-.84 3.832l3.45 1.972a13.229 13.229 0 001.359-5.804A13.229 13.229 0 00-23.911 3.88zm-8.432 18.408l-3.408 2.048a13.229 13.229 0 0011.046 5.962 13.229 13.229 0 0011.092-6.042l-3.443-1.968a9.26 9.26 0 01-7.649 4.041 9.26 9.26 0 01-7.638-4.041z" fill="url(#G)"/></g></svg>