<svg width="700.006" height="190.001" viewBox="0 0 185.21 50.271" xmlns="http://www.w3.org/2000/svg" xmlns:xlink="http://www.w3.org/1999/xlink"><defs><clipPath id="c"><path d="M-1718.4 23.884c-13.628 0-22.941 2.639-30.185 8.664-7.244 6.024-10.492 13.795-10.492 25.558s3.068 19.815 9.954 25.84c6.957 6.024 15.747 8.663 28.801 8.663 6.384 0 11.59-.775 16.18-2.138 4.577-1.359 7.59-2.467 10.522-4.25a.235.235 0 00.026-.016l-.026-.02V52.697h-30.382V65.76h11.512v6.497c-2.008.503-5.564 1.038-7.86 1.038-4.375 0-8.672-1.432-11.038-3.369-2.296-2.008-3.708-6.556-3.708-11.792s2.21-9.814 5.437-11.75c3.3-2.009 8.055-3.145 13.075-3.145 3.586 0 7.33.184 10.701.687 2.984.373 5.583 1.004 8.46 2.024l-.027-19.195c-2.895-.913-5.99-1.837-9.1-2.21-3.514-.503-7.401-.66-11.848-.66z" fill="#fff"/></clipPath><clipPath id="h"/><clipPath id="i"><path d="M-488.49-259.55v71.438h26.844v-17.971h2.517l.133.301 1.01 2.293 6.775 15.377h27.956l-8.22-18.928-1.178-2.715-.058-.134c3.776-2.271 6.594-5.364 8.447-9.284 1.997-3.993 2.995-8.541 2.995-13.644s-.998-9.65-2.995-13.644c-1.922-4.067-4.88-7.247-8.874-9.54-3.993-2.366-9.059-3.549-15.197-3.549h-13.311zm26.844 20.965h6.989c2.07 0 3.586.444 4.548 1.331 1.035.888 1.553 2.366 1.553 4.437s-.518 3.55-1.553 4.437c-.962.887-2.478 1.331-4.548 1.331h-6.989v-.221z"/></clipPath><clipPath id="m"><path d="M497.33-356.5l-15.347 39.823-6.03 15.657-5.127 13.311h25.117l4.088-10.665 1.014-2.646h18.573l1.014 2.646 4.088 10.665h25.117l-5.127-13.311-6.029-15.657-15.347-39.823h-4.568zm13.002 21.173l6.376 16.005 1.054 2.646h-14.86l1.055-2.646z" fill="#fff"/></clipPath><clipPath id="q"><path d="M346.73-90.318l26.672 69.268h22.036l26.672-69.268h-25.101L384.42-53.379l-12.59-36.939z" fill="#fff" stroke-width=".77"/></clipPath><clipPath id="v"/><clipPath id="A"><path d="M289.38-56.71v16.655h18.192v52.136h24.199v-52.136h18.192V-56.71z" fill="#fff" stroke-width=".747"/></clipPath><clipPath id="G"/><clipPath id="L"><path fill="#4d4d4d" fill-rule="evenodd" stroke-width=".265" d="M84.75 233.58h26.458v26.458H84.75z"/></clipPath><clipPath id="N"><path fill="#4d4d4d" fill-rule="evenodd" stroke-width=".265" d="M41.266 236.25h26.458v26.458H41.266z"/></clipPath><clipPath id="O"><path fill="#4d4d4d" fill-rule="evenodd" stroke-width=".265" d="M55.365 226.9h26.458v26.458H55.365z"/></clipPath><clipPath id="P"><path fill="#4d4d4d" fill-rule="evenodd" stroke-width=".265" d="M52.545 237.73h26.458v26.458H52.545z"/></clipPath><clipPath id="Q"><path fill="#4d4d4d" fill-rule="evenodd" stroke-width=".265" d="M25.683 187.87h26.458v26.458H25.683z"/></clipPath><clipPath id="R"><path fill="#4d4d4d" fill-rule="evenodd" stroke-width=".265" d="M43.641 228.53h26.458v26.458H43.641z"/></clipPath><clipPath id="S"><path fill="#4d4d4d" fill-rule="evenodd" stroke-width=".265" d="M71.987 233.43h26.458v26.458H71.987z"/></clipPath><filter id="e" color-interpolation-filters="sRGB"><feFlood flood-color="#000" flood-opacity=".698" result="flood"/><feComposite in="flood" in2="SourceGraphic" operator="in" result="composite1"/><feGaussianBlur in="composite1" result="blur" stdDeviation=".6"/><feOffset result="offset"/><feComposite in="offset" in2="offset" operator="atop" result="composite2"/></filter><filter id="f" color-interpolation-filters="sRGB"><feFlood flood-color="#000" flood-opacity=".698" result="flood"/><feComposite in="flood" in2="SourceGraphic" operator="in" result="composite1"/><feGaussianBlur in="composite1" result="blur" stdDeviation="1"/><feOffset result="offset"/><feComposite in="offset" in2="offset" operator="atop" result="composite2"/></filter><filter id="j" color-interpolation-filters="sRGB"><feFlood flood-color="#000" flood-opacity=".698" result="flood"/><feComposite in="flood" in2="SourceGraphic" operator="in" result="composite1"/><feGaussianBlur in="composite1" result="blur" stdDeviation=".6"/><feOffset result="offset"/><feComposite in="offset" in2="offset" operator="atop" result="composite2"/></filter><filter id="k" color-interpolation-filters="sRGB"><feFlood flood-color="#000" flood-opacity=".698" result="flood"/><feComposite in="flood" in2="SourceGraphic" operator="in" result="composite1"/><feGaussianBlur in="composite1" result="blur" stdDeviation="1"/><feOffset result="offset"/><feComposite in="offset" in2="offset" operator="atop" result="composite2"/></filter><filter id="n" color-interpolation-filters="sRGB"><feFlood flood-color="#000" flood-opacity=".698" result="flood"/><feComposite in="flood" in2="SourceGraphic" operator="in" result="composite1"/><feGaussianBlur in="composite1" result="blur" stdDeviation=".7"/><feOffset result="offset"/><feComposite in="offset" in2="offset" operator="atop" result="composite2"/></filter><filter id="o" color-interpolation-filters="sRGB"><feFlood flood-color="#000" flood-opacity=".698" result="flood"/><feComposite in="flood" in2="SourceGraphic" operator="in" result="composite1"/><feGaussianBlur in="composite1" result="blur" stdDeviation="1"/><feOffset result="offset"/><feComposite in="offset" in2="offset" operator="atop" result="composite2"/></filter><filter id="r" color-interpolation-filters="sRGB"><feFlood flood-color="#000" flood-opacity=".698" result="flood"/><feComposite in="flood" in2="SourceGraphic" operator="in" result="composite1"/><feGaussianBlur in="composite1" result="blur" stdDeviation="1"/><feOffset result="offset"/><feComposite in="offset" in2="offset" operator="atop" result="composite2"/></filter><filter id="t" color-interpolation-filters="sRGB"><feFlood flood-color="#000" flood-opacity=".698" result="flood"/><feComposite in="flood" in2="SourceGraphic" operator="in" result="composite1"/><feGaussianBlur in="composite1" result="blur" stdDeviation=".6"/><feOffset result="offset"/><feComposite in="offset" in2="offset" operator="atop" result="composite2"/></filter><filter id="x" color-interpolation-filters="sRGB"><feFlood flood-color="#000" flood-opacity=".698" result="flood"/><feComposite in="flood" in2="SourceGraphic" operator="in" result="composite1"/><feGaussianBlur in="composite1" result="blur" stdDeviation=".2"/><feOffset result="offset"/><feComposite in="offset" in2="offset" operator="atop" result="composite2"/></filter><filter id="y" color-interpolation-filters="sRGB"><feFlood flood-color="#000" flood-opacity=".698" result="flood"/><feComposite in="flood" in2="SourceGraphic" operator="in" result="composite1"/><feGaussianBlur in="composite1" result="blur" stdDeviation=".8"/><feOffset result="offset"/><feComposite in="offset" in2="offset" operator="atop" result="composite2"/></filter><filter id="C" color-interpolation-filters="sRGB"><feFlood flood-color="#000" flood-opacity=".698" result="flood"/><feComposite in="flood" in2="SourceGraphic" operator="in" result="composite1"/><feGaussianBlur in="composite1" result="blur" stdDeviation=".3"/><feOffset result="offset"/><feComposite in="offset" in2="offset" operator="atop" result="composite2"/></filter><filter id="E" color-interpolation-filters="sRGB"><feFlood flood-color="#000" flood-opacity=".698" result="flood"/><feComposite in="flood" in2="SourceGraphic" operator="in" result="composite1"/><feGaussianBlur in="composite1" result="blur" stdDeviation="1"/><feOffset result="offset"/><feComposite in="offset" in2="offset" operator="atop" result="composite2"/></filter><filter id="I" color-interpolation-filters="sRGB"><feFlood flood-color="#000" flood-opacity=".698" result="flood"/><feComposite in="flood" in2="SourceGraphic" operator="in" result="composite1"/><feGaussianBlur in="composite1" result="blur" stdDeviation=".3"/><feOffset result="offset"/><feComposite in="offset" in2="offset" operator="atop" result="composite2"/></filter><filter id="J" color-interpolation-filters="sRGB"><feFlood flood-color="#000" flood-opacity=".698" result="flood"/><feComposite in="flood" in2="SourceGraphic" operator="in" result="composite1"/><feGaussianBlur in="composite1" result="blur" stdDeviation="1"/><feOffset result="offset"/><feComposite in="offset" in2="offset" operator="atop" result="composite2"/></filter><filter id="M" color-interpolation-filters="sRGB"><feTurbulence baseFrequency="0.0087 0.04" numOctaves="5" result="turbulence" seed="1" type="fractalNoise"/><feComposite in="SourceGraphic" in2="turbulence" operator="in" result="composite1"/><feColorMatrix result="color" values="1 0 0 0 0 0 1 0 0 0 0 0 1 0 0 0 0 0 3 -1"/><feFlood flood-color="#000" flood-opacity=".322" result="flood"/><feMerge result="merge"><feMergeNode in="flood"/><feMergeNode in="color"/></feMerge><feComposite in2="SourceGraphic" operator="in" result="composite2"/></filter><radialGradient id="d" cx="-1618.2" cy="197.48" r="34.091" gradientTransform="matrix(1 0 0 1.0477 -108.27 -148.71)" gradientUnits="userSpaceOnUse" xlink:href="#a"/><radialGradient id="g" cx="-1618.2" cy="197.48" r="34.091" gradientTransform="matrix(1 0 0 1.0477 2408.5 -700.85)" gradientUnits="userSpaceOnUse"><stop stop-color="#e00" stop-opacity=".984" offset="0"/><stop stop-color="#d00" offset="1"/></radialGradient><radialGradient id="l" cx="-2050.1" cy="-850.92" r="127.03" gradientTransform="matrix(1 0 0 1.0627 0 53.365)" gradientUnits="userSpaceOnUse"><stop stop-color="#00e" stop-opacity=".984" offset="0"/><stop stop-color="#00d" offset="1"/></radialGradient><radialGradient id="p" cx="404.07" cy="-337.44" r="40.591" gradientTransform="matrix(1 0 0 .87998 0 -40.501)" gradientUnits="userSpaceOnUse"><stop stop-color="#00c300" stop-opacity=".984" offset="0"/><stop stop-color="#00b500" offset="1"/></radialGradient><radialGradient id="s" cx="837" cy="-282.84" r="147.6" gradientTransform="matrix(.26458 0 0 .24199 162.97 12.76)" gradientUnits="userSpaceOnUse" xlink:href="#a"/><radialGradient id="u" cx="837" cy="-282.84" r="147.6" gradientTransform="matrix(1 0 0 .91461 0 -24.151)" gradientUnits="userSpaceOnUse"><stop stop-color="#f48600" stop-opacity=".984" offset="0"/><stop stop-color="#e18600" offset="1"/></radialGradient><radialGradient id="w" cx="238.49" cy="151.92" r="4.474" gradientTransform="matrix(1 0 0 2.6612 0 -252.37)" gradientUnits="userSpaceOnUse" xlink:href="#b"/><radialGradient id="z" cx="921.5" cy="755.28" r="50.729" gradientTransform="matrix(1 0 0 2.6612 0 -1254.7)" gradientUnits="userSpaceOnUse"><stop stop-color="#8128d3" stop-opacity=".984" offset="0"/><stop stop-color="#7825c4" offset="1"/></radialGradient><radialGradient id="B" cx="253.2" cy="106.81" r="10.538" gradientTransform="matrix(1 0 0 1.1298 0 -13.866)" gradientUnits="userSpaceOnUse" xlink:href="#b"/><radialGradient id="D" cx="253.2" cy="106.81" r="10.538" gradientTransform="matrix(1 0 0 1.1298 100.06 51.583)" gradientUnits="userSpaceOnUse" xlink:href="#b"/><radialGradient id="F" cx="1738.2" cy="1489.4" r="119.49" gradientTransform="matrix(1 0 0 1.1298 0 -193.36)" gradientUnits="userSpaceOnUse"><stop stop-color="#e00" offset="0"/><stop stop-color="#d00" offset="1"/></radialGradient><radialGradient id="H" cx="384.14" cy="340.4" r="12.646" gradientTransform="matrix(1 0 0 .9415 0 19.913)" gradientUnits="userSpaceOnUse" xlink:href="#b"/><radialGradient id="K" cx="1068.8" cy="1737.9" r="143.39" gradientTransform="matrix(1 0 0 .9415 0 101.67)" gradientUnits="userSpaceOnUse"><stop stop-color="#00d" offset="0"/><stop stop-color="#00d" offset="1"/></radialGradient><linearGradient id="a"><stop stop-color="#eee" stop-opacity=".984" offset="0"/><stop stop-color="#ddd" offset="1"/></linearGradient><linearGradient id="b"><stop stop-color="#fff" stop-opacity=".986" offset="0"/><stop stop-color="#ddd" offset="1"/></linearGradient></defs><path d="M15.875.451c-4.543 0-7.647.88-10.062 2.888C3.4 5.348 2.316 7.938 2.316 11.86c0 3.92 1.023 6.605 3.318 8.613 2.32 2.009 5.25 2.888 9.6 2.888 2.128 0 3.864-.258 5.394-.713 1.525-.453 2.53-.822 3.507-1.416a.076.076 0 00.009-.006l-.01-.006V10.056H14.009v4.354h3.837v2.166c-.67.167-1.855.346-2.62.346-1.458 0-2.89-.478-3.68-1.123-.765-.67-1.235-2.186-1.235-3.931s.736-3.271 1.812-3.917c1.1-.67 2.685-1.048 4.358-1.048 1.196 0 2.444.061 3.567.229.995.124 1.861.334 2.82.674l-.009-6.398c-.965-.304-1.996-.612-3.033-.737-1.171-.167-2.467-.22-3.95-.22z" fill="#0ff"/><g transform="matrix(.33333 0 0 .33334 588.688 -7.51)" clip-path="url(#c)"><path d="M-1718.3 22.481c-13.628 0-24.064 3.012-31.308 9.037s-10.866 14.918-10.866 26.681c0 11.763 3.443 20.657 10.328 26.682 6.957 6.025 16.963 9.037 30.017 9.037 6.383 0 11.87-.681 16.46-2.044 3.964-1.177 7.373-2.47 10.123-3.956l-3.997-2.958c-1.619.858-2.17 1.044-3.22 1.583-.559.287-1.468.807-4.229 1.627-4.59 1.363-8.49 1.78-14.873 1.78-13.054 0-20.678-1.822-27.636-7.847-6.885-6.025-9.137-12.141-9.137-23.903 0-11.763 2.431-17.878 9.675-23.903 7.244-6.025 14.902-8.112 28.53-8.112 4.447 0 7.634.12 11.148.621 1.596.192 3.661.527 5.465.899l4.157-2.635a49.563 49.563 0 00-8.695-1.836c-3.515-.502-7.495-.752-11.942-.752zm22.271 4.686l-3.984 2.525-.099 10.962 4.083 5.015zm-20.55 13.293c-5.02 0-11.43 1.533-14.729 3.541-3.228 1.937-6.792 6.845-6.694 14.198.094 7.088 1.015 10.578 4.634 13.644 3.954 3.26 6.928 4.229 12.89 4.229.264 0 4.891-.533 5.151-.54 0 0 1.884-.137 3.991-.78l-4.288-3.172a27.7 27.7 0 01-4.72.39c-4.375 0-7.746-.968-10.113-2.904-2.295-2.008-3.443-5.63-3.443-10.867 0-5.236 1.614-8.822 4.841-10.76 3.3-2.007 7.459-3.011 12.48-3.011 3.585 0 7.065.25 10.436.753a41.59 41.59 0 017.707 1.722l-3.936-4.834c-1.238-.363-2.474-.695-3.771-.857a70.771 70.771 0 00-10.436-.753zm-6.87 10.915l3.97 3.969h21.348l3.969-3.969zm-1.87 1.87v11.967l3.968-3.97v-4.028zm33.027.001l-3.968 3.968v25.403l3.968 2.938V67.082zm-27.189 9.868l-3.968 3.969h7.77l3.968-3.97h-.896zm9.641 1.87l-3.969 3.97v.678l3.97 2.937v-5.486z" fill="url(#d)" filter="url(#e)"/><path d="M-1718.6 28.831c-13.628 0-19.566 1.425-26.81 7.45s-9.014 10.42-9.014 22.183 2.649 15.101 8.74 21.522c6.958 6.025 12.233 7.676 25.286 7.676 6.383 0 9.854-.51 14.445-1.874 2.76-.82.719-.13 2.883-1.106 0 0 1.515-.526 4.11-2.39l.019.013V57.99h-19.8v2.479h11.513V76.16l-.011.003-6.685-4.947 6.684 4.947c-3.781 1.211-4.543 1.11-5.475 1.352-1.752.456-7.533.937-7.797.937-5.962 0-10.789-1.1-14.743-4.36-3.618-3.067-5.465-8.674-5.56-15.761-.097-7.353 4.658-14.378 7.885-16.315 3.3-2.009 11.296-3.939 16.316-3.939 3.586 0 6.933-.013 10.304.489 1.202.15 2.484.579 3.631.91v-9.45c-1.38-.176-2.94-.42-4.243-.576-3.515-.502-7.23-.62-11.677-.62z" fill="#eee" filter="url(#f)"/></g><path d="M798.45-529.66c-13.628 0-24.064 3.012-31.308 9.037s-10.866 14.918-10.866 26.681c0 11.763 3.443 20.657 10.328 26.682 6.957 6.025 16.963 9.037 30.017 9.037 6.383 0 11.87-.681 16.46-2.044 3.964-1.177 7.373-2.47 10.123-3.956l-3.997-2.958c-1.619.858-2.17 1.044-3.22 1.583-.559.287-1.468.807-4.229 1.627-4.59 1.363-8.49 1.78-14.873 1.78-13.054 0-20.678-1.822-27.636-7.847-6.885-6.025-9.137-12.141-9.137-23.903 0-11.763 2.431-17.878 9.675-23.903 7.244-6.025 14.902-8.112 28.53-8.112 4.447 0 7.634.12 11.148.622 1.596.191 3.661.526 5.465.898l4.157-2.635a49.563 49.563 0 00-8.695-1.835c-3.515-.502-7.495-.753-11.942-.753zm22.271 4.686l-3.984 2.525-.099 10.962 4.083 5.015zm-20.55 13.293c-5.02 0-11.43 1.533-14.729 3.541-3.228 1.937-6.792 6.845-6.694 14.198.094 7.088 1.015 10.578 4.634 13.644 3.954 3.26 6.928 4.229 12.89 4.229.264 0 4.891-.533 5.151-.54 0 0 1.884-.137 3.991-.78l-4.288-3.172a27.7 27.7 0 01-4.72.39c-4.375 0-7.746-.968-10.113-2.904-2.295-2.008-3.443-5.63-3.443-10.867 0-5.236 1.614-8.822 4.841-10.76 3.3-2.007 7.459-3.011 12.48-3.011 3.585 0 7.065.25 10.436.753a41.59 41.59 0 017.707 1.722l-3.936-4.834c-1.238-.363-2.474-.695-3.771-.857a70.771 70.771 0 00-10.436-.753zm-6.87 10.915l3.97 3.969h21.348l3.969-3.969zm-1.87 1.87v11.967l3.968-3.97v-4.028zm33.027.001l-3.968 3.968v25.403l3.968 2.938v-18.473zm-27.189 9.868l-3.968 3.969h7.77l3.968-3.97h-.896zm9.641 1.87l-3.969 3.97v.678l3.97 2.937v-5.486z" fill="url(#g)" transform="matrix(.33333 0 0 .33334 -250.22 176.556)"/><path d="M15.837 2.116c-4.543 0-6.522.475-8.937 2.483-2.415 2.008-3.005 3.473-3.005 7.395 0 3.92.883 5.033 2.914 7.174 2.32 2.008 4.077 2.558 8.428 2.558 2.128 0 3.285-.17 4.815-.624.92-.273.24-.044.961-.369 0 0 .505-.175 1.37-.797l.007.005v-8.106h-6.6v.826h3.837v5.232h-.003l-2.229-1.648 2.228 1.649c-1.26.403-1.514.37-1.825.45-.584.152-2.51.313-2.599.313-1.987 0-3.596-.367-4.914-1.454-1.206-1.022-1.822-2.891-1.853-5.254C8.4 9.5 9.984 7.157 11.06 6.511c1.1-.67 3.765-1.313 5.439-1.313 1.195 0 2.31-.004 3.434.163.401.05.828.193 1.21.303v-3.15c-.46-.059-.98-.14-1.414-.192-1.171-.167-2.41-.207-3.892-.207z" fill="#e00"/><path d="M31.475.441v22.93h8.066v-5.99h1.566l2.64 5.99h8.358l-3.043-7.009c.064-.036.128-.071.192-.11 1.33-.763 2.162-1.625 2.803-2.98.666-1.332.943-2.66.943-4.361s-.277-3.03-.943-4.36c-.64-1.356-1.472-2.218-2.803-2.982C47.922.78 46.476.441 44.43.441h-4.889zm8.066 6.106h2.77c.691 0 1.494.258 1.815.554.345.296.66 1.12.66 1.81s-.315 1.514-.66 1.81c-.32.296-1.124.554-1.814.554h-2.77V7.17z" fill="#0ff" aria-label="R"/><g transform="translate(193.882 86.517) scale(.33333)" clip-path="url(#h)"><path d="M-486.62-259.55l3.969 3.969h27.993l6.229-.04c6.138-.04 9.146.294 13.139 2.66 2.824 1.779 5.408 4.023 7.33 8.09 1.997 3.994 2.721 6.952 2.721 12.055s-.724 8.06-2.72 12.054c-1.923 4.067-4.507 6.311-7.331 8.09-.76.449-1.482.818-2.198 1.132l4.968 1.532c3.68-2.26 6.434-5.312 8.256-9.164 1.996-3.994 2.994-8.542 2.994-13.644s-.998-9.651-2.994-13.644c-1.923-4.068-4.881-7.247-8.875-9.54-3.993-2.366-9.059-3.55-15.197-3.55h-13.31zm-1.871 1.871v67.695l3.969-3.969v-59.758zm24.747 15.125l3.969 3.969h5.117c2.07 0 3.587.444 4.548 1.331 1.035.888 1.553 2.366 1.553 4.437s-.518 3.55-1.553 4.437c-.961.887-2.477 1.331-4.548 1.331h-5.117l-3.97 3.969h9.087c2.07 0 5.317-.296 7.775-2.587 2.065-2.057 2.295-5.08 2.295-7.15s-.23-5.093-2.295-7.15c-2.458-2.29-5.704-2.587-7.775-2.587zm-1.871 1.871v15.731l3.968-3.968v-7.794zm1.87 30.63l3.41 3.41 2.209-3.41zm7.828 1.457l-2.57 3.968.5 1.138 6.138 13.929 2.57-3.969zm19.489.15l6.146 14.157 6.067 3.967-7.199-16.577zm-29.187.265v14.229l3.969 3.968v-14.229zm-17.036 16.1l-3.97 3.968h23.103l-3.969-3.968zm35.587 0l-2.572 3.968h23.964l-6.07-3.968z" clip-path="url(#i)" filter="url(#j)"/><path d="M-446.61-252.97a120.69 120.69 0 00-1.863.01l-6.183.066h-27.218v58.208h13.615v-17.97h13.415l7.92 17.97h13.558l-5.5-12.67-2.459-5.663c1.495-.325 2.918-.878 4.588-1.812 2.356-1.497 4.566-3.367 6.395-7.06 1.483-2.778 2.46-5.782 2.46-10.885s-.977-8.108-2.46-10.885c-1.829-3.694-4.039-5.564-6.395-7.06-3.412-1.908-5.787-2.236-9.872-2.25zm-21.649 7.812h13.603c2.07 0 6.44.37 9.412 3.128 2.953 2.618 3.304 7.184 3.304 9.255s-.35 6.636-3.304 9.254c-2.972 2.759-7.341 3.128-9.412 3.128h-13.603v-15.419z" fill="#eee" filter="url(#k)"/></g><path transform="translate(223.065 86.953) scale(.0882)" d="M-2170.1-985.92l15 15h105.8l23.543-.15c23.198-.149 34.567 1.112 49.66 10.057 10.674 6.72 20.44 15.203 27.707 30.576 7.546 15.093 10.283 26.27 10.283 45.557s-2.737 30.465-10.283 45.559c-7.267 15.373-17.033 23.854-27.707 30.574a75.907 75.907 0 01-8.308 4.28l18.779 5.792c13.905-8.542 24.318-20.076 31.2-34.637 7.547-15.093 11.319-32.283 11.319-51.568 0-19.286-3.772-36.475-11.318-51.568-7.267-15.373-18.448-27.39-33.541-36.055-15.093-8.944-34.24-13.416-57.438-13.416h-50.31zm-7.072 7.072v255.86l15-15v-225.86zm93.53 57.166l15 15h19.343c7.826 0 13.556 1.678 17.19 5.032 3.913 3.354 5.869 8.943 5.869 16.77 0 7.826-1.956 13.415-5.87 16.77-3.633 3.353-9.363 5.03-17.19 5.03h-19.341l-15 15h34.342c7.826 0 20.096-1.12 29.387-9.777 7.802-7.773 8.672-19.197 8.672-27.023s-.87-19.248-8.672-27.02c-9.29-8.658-21.561-9.78-29.387-9.78zm-7.071 7.073v59.457l15-15v-29.457zm7.072 115.77l12.887 12.887 8.346-12.887zm29.582 5.506l-9.715 14.998 1.894 4.298 23.195 52.646 9.717-15zm73.66.568l23.228 53.504 22.934 14.996-27.21-62.654zm-110.31.998v53.777l15 15v-53.777zm-64.387 60.85l-15 15h87.314l-15-15zm134.5 0l-9.719 15h90.572l-22.939-15z" fill="url(#l)"/><path d="M45.013 2.194c-.194 0-.4.001-.62.004l-2.062.022H33.26v19.402h4.538v-5.99h4.472l2.64 5.99h4.52L47.593 17.4l-.819-1.888c.498-.108.973-.293 1.53-.604.785-.499 1.521-1.122 2.131-2.353.494-.926.82-1.928.82-3.629 0-1.7-.326-2.702-.82-3.628-.61-1.23-1.346-1.854-2.132-2.353-1.137-.636-1.929-.745-3.29-.75zm-7.216 2.604h4.534c.69 0 2.147.124 3.138 1.043.984.873 1.1 2.395 1.1 3.085s-.116 2.212-1.1 3.085c-.991.92-2.447 1.042-3.138 1.042h-4.534v-5.14z" fill="#00e"/><path d="M66.99.444l-5.115 13.274-2.01 5.22-1.709 4.436h8.373l1.362-3.555.338-.882h6.191l.338.882 1.362 3.555h8.373l-1.709-4.437-2.01-5.219L75.66.444h-1.523zm4.335 7.058l2.125 5.335.351.881h-4.953l.352-.881z" fill="#0ff"/><g transform="translate(-98.785 119.273) scale(.33333)" clip-path="url(#m)"><path d="M498.02-357.82l2.76 3.969h19.1l2.76-3.969h-1.937zm-2.185 1.491l-14.761 38.332-7.05 18.303-4.285 11.128 5.778-3.968 4.289-11.128 3.991-10.366 14.796-38.334zm28.99 0l-2.758 3.967 14.796 38.334 3.991 10.366 4.29 11.13 5.776 3.967-4.285-11.129-7.048-18.303zm-15.817 17.236l-6.823 17.128-2.286 5.74 5.817-3.97 3.292-8.264zm2.645 0v10.634l3.291 8.261 5.818 3.97-2.286-5.737zm-4.467 21.096l-5.816 3.97h17.921l-5.815-3.97zm-6.358 14.335l2.733 3.969h13.538l2.733-3.969zm21.186 1.498l-2.734 3.97 3.954 10.315 2.732-3.97-1.484-3.875zm-23.367.001l-2.468 6.439-1.486 3.875 2.733 3.97 3.954-10.316zM477.01-290.35l-5.777 3.969h24.01l-2.731-3.969zm51.136 0l-2.732 3.969h24.01l-5.776-3.969z" filter="url(#n)"/><path d="M501.01-351.2l-15.395 39.823-1.954 5.074-5.134 13.311h13.771l.031-.082 5.07-13.23h25.865l5.07 13.23.031.082h13.771l-5.134-13.31-1.954-5.075-15.395-39.823h-8.643zm9.321 1.703l9.916 24.892 5.27 13.229h-30.37l5.269-13.23z" fill="red" filter="url(#o)"/></g><path d="M391.76-373.16l2.76 3.969h19.1l2.76-3.969h-1.937zm-2.185 1.491l-14.761 38.332-7.05 18.303-4.285 11.128 5.778-3.968 4.289-11.128 3.991-10.366 14.796-38.334zm28.99 0l-2.758 3.967 14.796 38.334 3.991 10.366 4.29 11.13 5.776 3.967-4.285-11.129-7.048-18.303zm-15.817 17.236l-6.823 17.128-2.286 5.74 5.817-3.97 3.292-8.264zm2.645 0v10.634l3.291 8.261 5.818 3.97-2.286-5.738zm-4.467 21.096l-5.816 3.97h17.921l-5.815-3.97zm-6.358 14.335l2.733 3.969h13.538l2.733-3.969zm21.186 1.498l-2.735 3.97 3.955 10.315 2.732-3.97-1.484-3.875zm-23.367.001l-2.468 6.439-1.486 3.875 2.732 3.97 3.955-10.316zM370.75-305.69l-5.777 3.969h24.01l-2.731-3.969zm51.136 0l-2.732 3.969h24.01l-5.776-3.969z" fill="url(#p)" transform="translate(-63.362 124.39) scale(.33333)"/><path d="M68.217 2.207l-5.132 13.275-.651 1.69-1.711 4.438h4.59l.01-.028 1.69-4.41h8.622l1.69 4.41.01.028h4.59l-1.711-4.437-.651-1.691L74.43 2.207h-2.88zm3.107.568l3.305 8.297 1.757 4.41H66.262l1.757-4.41z" fill="#00c300"/><path d="M87.006.367l8.89 23.09h7.346l8.89-23.09h-8.366L99.569 12.68 95.373.367z" fill="#0ff"/><g transform="translate(-28.569 30.473) scale(.33333)" clip-path="url(#q)" stroke-width=".77"><path d="M353.96-84.789l22.414 58.209h16.105l22.414-58.209h-13.585l-16.882 49.533-16.882-49.533z" fill="#eee" filter="url(#r)"/><path d="M346.82-91.404l5.664 3.969h15.402l2.936-3.969zm51.198 0l2.937 3.969h15.402l5.663-3.969zm-25.034 1.526l-2.949 3.985 13.062 38.325v-12.388zm22.871 0l-10.113 29.923v12.384l13.061-38.322zm27.618.686l-5.664 3.969-23.015 59.769 2.606 3.969zm-78.107 0l26.073 67.706 2.605-3.97-23.015-59.767zm30.845 65.257l-2.605 3.969h21.627l-2.605-3.97h-14.94z" fill="url(#s)" filter="url(#t)"/></g><path transform="translate(25.75 36.857) scale(.0882)" d="M694.89-417.84l21.406 15h58.213l11.1-15zm193.51 0l11.1 15h58.211l21.406-15zm-94.615 5.77l-11.145 15.06 49.367 144.85v-46.82zm86.443 0l-38.221 113.09v46.81l49.365-144.84zm104.38 2.59l-21.406 15-86.986 225.9 9.848 15.001zm-295.21.003l98.543 255.89 9.846-15-86.986-225.9zm116.58 246.64l-9.846 15h81.738l-9.845-15h-56.467z" fill="url(#u)"/><path d="M89.414 2.21l7.47 19.403h5.37l7.47-19.403h-4.528l-5.627 16.511-5.628-16.51z" fill="#f48600"/><g stroke-width=".257"><path d="M118.437 23.37V.452h8.053V23.37z" fill="#0ff" aria-label="I"/><g transform="translate(-16.785 13.737) scale(.33333)" clip-path="url(#v)"><g transform="matrix(3 0 0 3 -297.72 -461.25)" fill="url(#w)" filter="url(#x)" aria-label="I"><path d="M234.649 140.017l1.437 1.437h4.809l1.437-1.437zm-.633.633v22.546l1.437-1.436v-19.673zm8.949 0l-1.437 1.436v19.674l1.437 1.437zm-6.879 21.742l-1.437 1.437h7.683l-1.437-1.437z"/></g><g transform="matrix(1.4366 0 0 2.4125 75.149 -372)" fill="#eee" filter="url(#y)" aria-label="I"><path d="M234.01 163.83v-23.812h8.948v23.812z"/></g></g><path transform="translate(41.194 -54.7) scale(.0882)" d="M877.94 620.28l16.293 16.291h54.527l16.291-16.291zm-7.174 7.174v255.65l16.293-16.293V643.75zm101.46 0l-16.29 16.29v223.07l16.29 16.292zm-77.992 246.53l-16.295 16.293h87.115l-16.293-16.293z" fill="url(#z)" aria-label="I"/><path d="M120.321 21.483V2.334h4.285v19.15z" fill="#8128d3" aria-label="I"/></g><path d="M133.308.446v5.552h6.064v17.378h8.066V5.998h6.064V.446z" fill="#0ff"/><g transform="translate(36.848 19.35) scale(.33333)" clip-path="url(#A)"><g transform="matrix(3 0 0 3 -439.92 -342.75)" fill="url(#B)" filter="url(#C)" stroke-width=".257" aria-label="T"><path transform="translate(99.897 -24.544) scale(.0882)" d="M1625.8 1354.4l15 15h194.83l15-15zm-7.072 7.072v58.807l15-15v-28.807zm238.97 0l-15 15v28.805l15 15zm-216.9 50.877l-15 15h54.613l15-15h-1.56zm140.22 0l15 15h54.615l-15-15h-53.057zm-78.531 7.073l-15 15v182.91l15-15zm71.459 0v182.91l15 15v-182.91zm-64.387 189.98l-15 15h87.314l-15-15z" fill="url(#D)"/></g><path d="M294.67-51.418v6.072h18.192V6.79h13.615v-52.136h18.192v-6.072z" fill="#eee" filter="url(#E)"/></g><g stroke-width=".257" aria-label="T"><path transform="translate(-9.893 -119.441) scale(.0882)" d="M1625.8 1354.4l15 15h194.83l15-15zm-7.072 7.072v58.807l15-15v-28.807zm238.97 0l-15 15v28.805l15 15zm-216.9 50.877l-15 15h54.613l15-15h-1.56zm140.22 0l15 15h54.615l-15-15h-53.057zm-78.531 7.073l-15 15v182.91l15-15zm71.459 0v182.91l15 15v-182.91zm-64.387 189.98l-15 15h87.314l-15-15z" fill="url(#F)" aria-label="T"/><path d="M135.074 2.208v2.024h6.064V21.61h4.538V4.232h6.064V2.208z" fill="#e00"/></g><path d="M159.766.539l4.344 7.58 3.706 6.522.212.374v8.278h7.89v-8.278l.213-.374 3.706-6.522L184.18.54h-8.08l-3.834 7.58-.293.497-.293-.497-3.833-7.58z" fill="#0ff" aria-label="Y"/><g transform="matrix(.33333 0 0 .33334 69.501 23.804)" clip-path="url(#G)"><g transform="matrix(3 0 0 3 -844.97 -1056.9)" fill="url(#H)" filter="url(#I)" stroke-width=".257" aria-label="Y"><path d="M371.901 328.496l2.204 1.323h4.838l.888-1.323zm16.535 0l.888 1.323h4.837l2.204-1.323zm-7.848.455l-.883 1.315 3.695 7.133.292.495v-2.704zm7.09 0l-3.104 6.239v2.705l.293-.496 3.694-7.133zm-16.191.325l7.948 13.986 1.323-.388-.307-.54-2.805-4.935-3.94-6.79zm25.292 0l-2.218 1.332-3.94 6.791-2.805 4.934-.307.541 1.322.388zm-9.494 14.452v6.634l1.323 1.323v-7.57zm-6.302 0l-1.323.388v7.569l1.323-1.323zm.624 7.258l-1.323 1.323h7.7l-1.323-1.323z"/></g><path d="M279.19-64.76l13.376 22.74 5.405 9.511 2.657 4.675v21.282h13.616v-21.283l8.062-14.185 13.375-22.74h-12.49l-12.088 22.74-3.667 6.213-3.668-6.213-12.088-22.74z" fill="#eee" filter="url(#J)"/></g><path transform="translate(77.711 -141.36) scale(.0882)" d="M930.12 1602.9l24.994 15h54.85l10.068-15zm187.48 0l10.068 15h54.852l24.994-15zm-88.986 5.152l-10.008 14.91 41.895 80.885 3.314 5.616v-30.664zm80.402 0l-35.201 70.746v30.668l3.316-5.619 41.893-80.885zm-183.59 3.696l90.119 158.58 15.002-4.399-3.486-6.135-31.795-55.947-44.68-77zm286.78 0l-25.158 15.1-44.678 77-31.795 55.947-3.486 6.132 15 4.399zm-107.65 163.86v75.223l14.998 14.998v-85.824zm-71.461 0l-15.002 4.398v85.824l15.002-15.002zm7.072 82.293l-15 15h87.316l-15-15z" fill="url(#K)" aria-label="Y"/><path d="M162.564 2.217l4.458 7.58 1.802 3.17.886 1.558v7.095h4.538v-7.095l2.687-4.728 4.459-7.58h-4.164l-4.029 7.58-1.222 2.07-1.223-2.07-4.03-7.58z" fill="#00e"/><g fill-rule="evenodd"><path fill="gray" d="M.005 23.815h26.458v26.458H.005z"/><g transform="matrix(.98 0 0 .98 -82.79 -204.825)" clip-path="url(#L)"><path fill="#4d4d4d" d="M84.75 233.58h26.458v26.458H84.75z"/><path fill="#1a1a1a" filter="url(#M)" d="M84.75 233.58h26.458v26.458H84.75z"/></g></g><g fill-rule="evenodd"><path fill="gray" d="M26.463 23.815h26.458v26.458H26.463z"/><g transform="matrix(.98 0 0 .98 -13.713 -207.445)" clip-path="url(#N)"><path fill="#4d4d4d" d="M41.266 236.25h26.458v26.458H41.266z"/><path fill="#1a1a1a" filter="url(#M)" d="M41.266 236.25h26.458v26.458H41.266z"/></g></g><g fill-rule="evenodd"><path fill="gray" d="M52.922 23.815H79.38v26.458H52.922z"/><g transform="matrix(.98 0 0 .98 -1.072 -198.275)" clip-path="url(#O)"><path fill="#4d4d4d" d="M55.365 226.9h26.458v26.458H55.365z"/><path fill="#1a1a1a" filter="url(#M)" d="M55.365 226.9h26.458v26.458H55.365z"/></g></g><g fill-rule="evenodd"><path fill="gray" d="M79.375 23.815h26.458v26.458H79.375z"/><g transform="matrix(.98 0 0 .98 28.145 -208.895)" clip-path="url(#P)"><path fill="#4d4d4d" d="M52.545 237.73h26.458v26.458H52.545z"/><path fill="#1a1a1a" filter="url(#M)" d="M52.545 237.73h26.458v26.458H52.545z"/></g></g><g fill-rule="evenodd"><path fill="gray" d="M105.833 23.815h26.458v26.458h-26.458z"/><g transform="matrix(.98 0 0 .98 80.928 -160.025)" clip-path="url(#Q)"><path fill="#4d4d4d" d="M25.683 187.87h26.458v26.458H25.683z"/><path fill="#1a1a1a" filter="url(#M)" d="M25.683 187.87h26.458v26.458H25.683z"/></g></g><g fill-rule="evenodd"><path fill="gray" d="M132.292 23.815h26.458v26.458h-26.458z"/><g transform="matrix(.98 0 0 .98 89.788 -199.885)" clip-path="url(#R)"><path fill="#4d4d4d" d="M43.641 228.53h26.458v26.458H43.641z"/><path fill="#1a1a1a" filter="url(#M)" d="M43.641 228.53h26.458v26.458H43.641z"/></g></g><g fill-rule="evenodd"><path fill="gray" d="M158.755 23.815h26.458v26.458h-26.458z"/><g transform="matrix(.98 0 0 .98 88.47 -204.685)" clip-path="url(#S)"><path fill="#4d4d4d" d="M71.987 233.43h26.458v26.458H71.987z"/><path fill="#1a1a1a" filter="url(#M)" d="M71.987 233.43h26.458v26.458H71.987z"/></g></g></svg>