<svg width="100" height="100" viewBox="0 0 26.458 26.458" xmlns="http://www.w3.org/2000/svg" xmlns:xlink="http://www.w3.org/1999/xlink"><defs><radialGradient id="b" cx="60.898" cy="184.09" r="7.673" gradientTransform="translate(11.327 -163.91) scale(1.0345)" gradientUnits="userSpaceOnUse"><stop stop-color="red" offset="0"/><stop stop-color="#ec0000" offset="1"/></radialGradient><radialGradient id="d" cx="60.898" cy="184.09" r="7.673" gradientTransform="translate(13.427 -157.56)" gradientUnits="userSpaceOnUse"><stop stop-color="#ff8c00" offset="0"/><stop stop-color="#ec8200" offset="1"/></radialGradient><radialGradient id="e" cx="230.16" cy="695.78" r="50" gradientTransform="matrix(.26458 0 0 .2643 -38.061 12.64)" gradientUnits="userSpaceOnUse" xlink:href="#a"/><radialGradient id="h" cx="230.16" cy="695.78" r="50" gradientTransform="matrix(.26458 0 0 .2643 13.427 -157.37)" gradientUnits="userSpaceOnUse"><stop stop-color="#ff8c00" offset="0"/><stop stop-color="#ec8200" offset=".58"/><stop stop-color="#de7a00" offset="1"/></radialGradient><filter id="c" color-interpolation-filters="sRGB"><feFlood flood-color="#000" flood-opacity=".498" result="flood"/><feComposite in="flood" in2="SourceGraphic" operator="in" result="composite1"/><feGaussianBlur in="composite1" result="blur" stdDeviation=".2"/><feOffset result="offset"/><feComposite in="offset" in2="offset" operator="atop" result="composite2"/></filter><filter id="g" color-interpolation-filters="sRGB"><feFlood flood-color="#000" flood-opacity=".498" result="flood"/><feComposite in="flood" in2="SourceGraphic" operator="in" result="composite1"/><feGaussianBlur in="composite1" result="blur" stdDeviation=".2"/><feOffset result="offset"/><feComposite in="offset" in2="offset" operator="atop" result="composite2"/></filter><linearGradient id="a"><stop stop-color="red" offset="0"/><stop stop-color="#ec0000" offset=".58"/><stop stop-color="#de0000" offset="1"/></linearGradient><clipPath id="f"><circle cx="23.062" cy="196.46" r="12.568" fill="#0ff" fill-rule="evenodd" stroke-width=".47"/></clipPath></defs><g transform="matrix(1 0 0 1.0011 -61.096 -13.34)" fill-rule="evenodd"><circle cx="74.325" cy="26.533" r="12.568" fill="#e3dfd3"/><circle cx="74.325" cy="26.533" r="7.938" fill="url(#b)" filter="url(#c)"/><circle cx="74.325" cy="26.533" r="7.673" fill="url(#d)"/><g fill="url(#e)" stroke-width=".143"><path transform="translate(51.263 -169.93)" d="M23.63 183.33v3.968a9.26 9.26 0 018.467 9.221 9.26 9.26 0 01-.84 3.832l3.45 1.972a13.23 13.23 0 001.358-5.804c-.008-6.992-5.456-12.77-12.435-13.189z" clip-path="url(#f)" filter="url(#g)"/><path transform="rotate(240.7 -1.06 96.47)" d="M23.63 183.33v3.968a9.26 9.26 0 018.467 9.221 9.26 9.26 0 01-.84 3.832l3.45 1.972a13.23 13.23 0 001.358-5.804c-.008-6.992-5.456-12.77-12.435-13.189z" clip-path="url(#f)" filter="url(#g)"/><path transform="rotate(120.14 97.6 126.23)" d="M23.63 183.33v3.968a9.26 9.26 0 018.467 9.221 9.26 9.26 0 01-.84 3.832l3.45 1.972a13.23 13.23 0 001.358-5.804c-.008-6.992-5.456-12.77-12.435-13.189z" clip-path="url(#f)" filter="url(#g)"/></g><path d="M73.531 13.317a13.229 13.229 0 00-12.435 13.201 13.229 13.229 0 001.39 5.891l3.423-2.056a9.26 9.26 0 01-.844-3.835 9.26 9.26 0 018.466-9.22zm1.587.012v3.968a9.26 9.26 0 018.467 9.221 9.26 9.26 0 01-.84 3.832l3.45 1.972a13.229 13.229 0 001.359-5.804A13.229 13.229 0 0075.119 13.33zm-8.431 18.408l-3.409 2.048a13.229 13.229 0 0011.046 5.962 13.229 13.229 0 0011.092-6.042l-3.443-1.968a9.26 9.26 0 01-7.649 4.042 9.26 9.26 0 01-7.638-4.042z" fill="url(#h)"/></g></svg>