<?xml version="1.0" encoding="UTF-8"?>
<svg width="185.21mm" height="50.271mm" version="1.1" viewBox="0 0 185.21 50.271" xmlns="http://www.w3.org/2000/svg" xmlns:cc="http://creativecommons.org/ns#" xmlns:dc="http://purl.org/dc/elements/1.1/" xmlns:rdf="http://www.w3.org/1999/02/22-rdf-syntax-ns#" xmlns:xlink="http://www.w3.org/1999/xlink">
 <defs>
  <clipPath id="clipPath1820">
   <path d="m-1718.4 23.884c-13.628 0-22.941 2.6387-30.185 8.6636-7.244 6.0248-10.492 13.795-10.492 25.558 0 11.763 3.0684 19.815 9.954 25.84 6.9573 6.0248 15.747 8.663 28.801 8.663 6.3836 0 11.59-0.77509 16.18-2.1379 4.5766-1.3587 7.5895-2.4662 10.522-4.2499 1e-4 -5e-5 -1e-4 -5.29e-4 0-5.29e-4 0.01-5e-3 0.018-0.01019 0.026-0.01551l-0.026-0.0196v-33.488h-30.382v13.062h11.512v6.4973c-2.0083 0.50207-5.5644 1.0371-7.8594 1.0371-4.3752 1e-5 -8.6723-1.4317-11.039-3.3683-2.2952-2.0083-3.7074-6.5562-3.7074-11.792s2.2093-9.8142 5.4369-11.751c3.2993-2.0083 8.0545-3.1445 13.075-3.1445 3.5863 0 7.3296 0.18471 10.701 0.68677 2.984 0.37301 5.5833 1.0045 8.4595 2.0242l-0.027-19.195c-2.8941-0.91249-5.9896-1.837-9.0993-2.2102-3.5145-0.50207-7.4015-0.65991-11.848-0.65991z" fill="#fff"/>
  </clipPath>
  <radialGradient id="radialGradient3147" cx="-1618.2" cy="197.48" r="34.091" gradientTransform="matrix(1 0 0 1.0477 -108.27 -148.71)" gradientUnits="userSpaceOnUse" xlink:href="#linearGradient1406"/>
  <linearGradient id="linearGradient1406">
   <stop stop-color="#eee" stop-opacity=".98431" offset="0"/>
   <stop stop-color="#ddd" offset="1"/>
  </linearGradient>
  <filter id="filter1702" color-interpolation-filters="sRGB">
   <feFlood flood-color="rgb(0,0,0)" flood-opacity=".69804" result="flood"/>
   <feComposite in="flood" in2="SourceGraphic" operator="in" result="composite1"/>
   <feGaussianBlur in="composite1" result="blur" stdDeviation="0.6"/>
   <feOffset dx="0" dy="0" result="offset"/>
   <feComposite in="offset" in2="offset" operator="atop" result="composite2"/>
  </filter>
  <filter id="filter1722" color-interpolation-filters="sRGB">
   <feFlood flood-color="rgb(0,0,0)" flood-opacity=".69804" result="flood"/>
   <feComposite in="flood" in2="SourceGraphic" operator="in" result="composite1"/>
   <feGaussianBlur in="composite1" result="blur" stdDeviation="1"/>
   <feOffset dx="0" dy="0" result="offset"/>
   <feComposite in="offset" in2="offset" operator="atop" result="composite2"/>
  </filter>
  <radialGradient id="radialGradient3149" cx="-1618.2" cy="197.48" r="34.091" gradientTransform="matrix(1 0 0 1.0477 2408.5 -700.85)" gradientUnits="userSpaceOnUse">
   <stop stop-color="#e00" stop-opacity=".98431" offset="0"/>
   <stop stop-color="#d00" offset="1"/>
  </radialGradient>
  <clipPath id="clipPath2213">
   <g transform="matrix(2.7043 0 0 2.8889 742.78 730.1)" fill="#fff" aria-label="R">
    <path transform="matrix(.097838 0 0 .091586 -333.28 -168.38)" d="m-1242.2-1896.9v260h91.459v-67.922h17.75l29.928 67.922h94.777l-34.508-79.475c0.7279-0.4043 1.4545-0.8108 2.1758-1.2383 15.093-8.6645 24.524-18.432 31.791-33.805 7.5465-15.093 10.693-30.158 10.693-49.443s-3.1469-34.35-10.693-49.443c-7.267-15.373-16.698-25.14-31.791-33.805-15.093-8.9441-31.489-12.791-54.688-12.791h-55.436zm91.459 69.238h31.414c7.8261 0 16.931 2.9273 20.564 6.2813 3.913 3.3541 7.4941 12.694 7.4941 20.52s-3.5811 17.165-7.4941 20.52c-3.6336 3.3539-12.738 6.2813-20.564 6.2813h-31.414v-46.535z" fill="#fff" stroke-width="2.7126"/>
   </g>
  </clipPath>
  <clipPath id="clipPath2117">
   <path d="m-488.49-259.55v71.438h26.844v-17.971h2.5172l0.13279 0.30125 1.0103 2.2924 6.7748 15.377h27.956l-8.2197-18.928-1.1782-2.7145-0.0584-0.13386c3.7764-2.2714 6.5945-5.3642 8.4476-9.2842 1.9967-3.9934 2.9946-8.5415 2.9946-13.644s-0.99798-9.6507-2.9946-13.644c-1.9228-4.0674-4.881-7.247-8.8744-9.5395-3.9933-2.3665-9.059-3.5496-15.197-3.5496h-13.311zm26.844 20.965h6.9887c2.0706 0 3.5866 0.44381 4.548 1.3312 1.0353 0.88744 1.5529 2.3663 1.5529 4.4369s-0.51758 3.5495-1.5529 4.4369c-0.96139 0.88741-2.4774 1.3312-4.548 1.3312h-6.9887v-0.2217z"/>
  </clipPath>
  <filter id="filter2092" color-interpolation-filters="sRGB">
   <feFlood flood-color="rgb(0,0,0)" flood-opacity=".69804" result="flood"/>
   <feComposite in="flood" in2="SourceGraphic" operator="in" result="composite1"/>
   <feGaussianBlur in="composite1" result="blur" stdDeviation="0.6"/>
   <feOffset dx="0" dy="0" result="offset"/>
   <feComposite in="offset" in2="offset" operator="atop" result="composite2"/>
  </filter>
  <filter id="filter2155" color-interpolation-filters="sRGB">
   <feFlood flood-color="rgb(0,0,0)" flood-opacity=".69804" result="flood"/>
   <feComposite in="flood" in2="SourceGraphic" operator="in" result="composite1"/>
   <feGaussianBlur in="composite1" result="blur" stdDeviation="1"/>
   <feOffset dx="0" dy="0" result="offset"/>
   <feComposite in="offset" in2="offset" operator="atop" result="composite2"/>
  </filter>
  <radialGradient id="radialGradient3145" cx="-2050.1" cy="-850.92" r="127.03" gradientTransform="matrix(1 0 0 1.0627 0 53.365)" gradientUnits="userSpaceOnUse">
   <stop stop-color="#00e" stop-opacity=".98431" offset="0"/>
   <stop stop-color="#00d" offset="1"/>
  </radialGradient>
  <clipPath id="clipPath1850">
   <path d="m497.33-356.5-15.347 39.823-6.0291 15.657-5.1284 13.311h25.118l4.0876-10.665 1.0139-2.6458h18.573l1.0139 2.6458 4.0876 10.665h25.118l-5.1273-13.311-6.0291-15.657-15.347-39.823h-4.5677zm13.002 21.173 6.3758 16.005 1.0537 2.6458h-14.859l1.0542-2.6458z" fill="#fff"/>
  </clipPath>
  <filter id="filter1964" color-interpolation-filters="sRGB">
   <feFlood flood-color="rgb(0,0,0)" flood-opacity=".69804" result="flood"/>
   <feComposite in="flood" in2="SourceGraphic" operator="in" result="composite1"/>
   <feGaussianBlur in="composite1" result="blur" stdDeviation="0.7"/>
   <feOffset dx="0" dy="0" result="offset"/>
   <feComposite in="offset" in2="offset" operator="atop" result="composite2"/>
  </filter>
  <filter id="filter1978" color-interpolation-filters="sRGB">
   <feFlood flood-color="rgb(0,0,0)" flood-opacity=".69804" result="flood"/>
   <feComposite in="flood" in2="SourceGraphic" operator="in" result="composite1"/>
   <feGaussianBlur in="composite1" result="blur" stdDeviation="1"/>
   <feOffset dx="0" dy="0" result="offset"/>
   <feComposite in="offset" in2="offset" operator="atop" result="composite2"/>
  </filter>
  <radialGradient id="radialGradient3143" cx="404.07" cy="-337.44" r="40.591" gradientTransform="matrix(1 0 0 .87998 0 -40.501)" gradientUnits="userSpaceOnUse">
   <stop stop-color="#00c300" stop-opacity=".98431" offset="0"/>
   <stop stop-color="#00b500" offset="1"/>
  </radialGradient>
  <clipPath id="clipPath1902">
   <path d="m346.73-90.318 26.672 69.268h22.036l26.672-69.268h-25.101l-12.589 36.939-12.59-36.939z" fill="#fff" stroke-width=".77033"/>
  </clipPath>
  <filter id="filter1876" color-interpolation-filters="sRGB">
   <feFlood flood-color="rgb(0,0,0)" flood-opacity=".69804" result="flood"/>
   <feComposite in="flood" in2="SourceGraphic" operator="in" result="composite1"/>
   <feGaussianBlur in="composite1" result="blur" stdDeviation="1"/>
   <feOffset dx="0" dy="0" result="offset"/>
   <feComposite in="offset" in2="offset" operator="atop" result="composite2"/>
  </filter>
  <radialGradient id="radialGradient3139" cx="837" cy="-282.84" r="147.6" gradientTransform="matrix(.26458 0 0 .24199 162.97 12.76)" gradientUnits="userSpaceOnUse" xlink:href="#linearGradient1406"/>
  <filter id="filter1888" color-interpolation-filters="sRGB">
   <feFlood flood-color="rgb(0,0,0)" flood-opacity=".69804" result="flood"/>
   <feComposite in="flood" in2="SourceGraphic" operator="in" result="composite1"/>
   <feGaussianBlur in="composite1" result="blur" stdDeviation="0.6"/>
   <feOffset dx="0" dy="0" result="offset"/>
   <feComposite in="offset" in2="offset" operator="atop" result="composite2"/>
  </filter>
  <radialGradient id="radialGradient3141" cx="837" cy="-282.84" r="147.6" gradientTransform="matrix(1 0 0 .91461 0 -24.151)" gradientUnits="userSpaceOnUse">
   <stop stop-color="#f48600" stop-opacity=".98431" offset="0"/>
   <stop stop-color="#e18600" offset="1"/>
  </radialGradient>
  <clipPath id="clipPath2119">
   <g transform="matrix(2.7 0 0 2.8873 -39.909 -450.85)" fill="#fff" stroke-width=".25678" aria-label="I">
    <path d="m165.03 166.16v-23.812h8.9482v23.812z" fill="#fff" stroke-width=".25678"/>
   </g>
  </clipPath>
  <radialGradient id="radialGradient3133" cx="238.49" cy="151.92" r="4.474" gradientTransform="matrix(1 0 0 2.6612 0 -252.37)" gradientUnits="userSpaceOnUse" xlink:href="#linearGradient900-5"/>
  <linearGradient id="linearGradient900-5">
   <stop stop-color="#fff" stop-opacity=".98598" offset="0"/>
   <stop stop-color="#ddd" offset="1"/>
  </linearGradient>
  <filter id="filter2017" color-interpolation-filters="sRGB">
   <feFlood flood-color="rgb(0,0,0)" flood-opacity=".69804" result="flood"/>
   <feComposite in="flood" in2="SourceGraphic" operator="in" result="composite1"/>
   <feGaussianBlur in="composite1" result="blur" stdDeviation="0.2"/>
   <feOffset dx="0" dy="0" result="offset"/>
   <feComposite in="offset" in2="offset" operator="atop" result="composite2"/>
  </filter>
  <filter id="filter2093" color-interpolation-filters="sRGB">
   <feFlood flood-color="rgb(0,0,0)" flood-opacity=".69804" result="flood"/>
   <feComposite in="flood" in2="SourceGraphic" operator="in" result="composite1"/>
   <feGaussianBlur in="composite1" result="blur" stdDeviation="0.8"/>
   <feOffset dx="0" dy="0" result="offset"/>
   <feComposite in="offset" in2="offset" operator="atop" result="composite2"/>
  </filter>
  <radialGradient id="radialGradient3135" cx="921.5" cy="755.28" r="50.729" gradientTransform="matrix(1 0 0 2.6612 0 -1254.7)" gradientUnits="userSpaceOnUse">
   <stop stop-color="#8128d3" stop-opacity=".98431" offset="0"/>
   <stop stop-color="#7825c4" offset="1"/>
  </radialGradient>
  <clipPath id="clipPath2249">
   <path d="m289.38-56.71v16.655h18.192v52.136h24.199v-52.136h18.192v-16.655z" fill="#fff" stroke-width=".74717"/>
  </clipPath>
  <radialGradient id="radialGradient3125" cx="253.2" cy="106.81" r="10.538" gradientTransform="matrix(1 0 0 1.1298 0 -13.866)" gradientUnits="userSpaceOnUse" xlink:href="#linearGradient900-5"/>
  <filter id="filter2228" color-interpolation-filters="sRGB">
   <feFlood flood-color="rgb(0,0,0)" flood-opacity=".69804" result="flood"/>
   <feComposite in="flood" in2="SourceGraphic" operator="in" result="composite1"/>
   <feGaussianBlur in="composite1" result="blur" stdDeviation="0.3"/>
   <feOffset dx="0" dy="0" result="offset"/>
   <feComposite in="offset" in2="offset" operator="atop" result="composite2"/>
  </filter>
  <radialGradient id="radialGradient3123" cx="253.2" cy="106.81" r="10.538" gradientTransform="matrix(1 0 0 1.1298 100.06 51.583)" gradientUnits="userSpaceOnUse" xlink:href="#linearGradient900-5"/>
  <filter id="filter2168" color-interpolation-filters="sRGB">
   <feFlood flood-color="rgb(0,0,0)" flood-opacity=".69804" result="flood"/>
   <feComposite in="flood" in2="SourceGraphic" operator="in" result="composite1"/>
   <feGaussianBlur in="composite1" result="blur" stdDeviation="1"/>
   <feOffset dx="0" dy="0" result="offset"/>
   <feComposite in="offset" in2="offset" operator="atop" result="composite2"/>
  </filter>
  <radialGradient id="radialGradient3127" cx="1738.2" cy="1489.4" r="119.49" gradientTransform="matrix(1 0 0 1.1298 0 -193.36)" gradientUnits="userSpaceOnUse">
   <stop stop-color="#e00" offset="0"/>
   <stop stop-color="#d00" offset="1"/>
  </radialGradient>
  <clipPath id="clipPath2349">
   <g transform="matrix(3 0 0 3 -860.85 -1096.8)" stroke-width=".25678" aria-label="Y">
    <path transform="matrix(.088194 0 0 .088194 226.73 217.01)" d="m1706.3 1421.1 49.256 85.947 42.023 73.947 2.4102 4.2403v93.865h89.459v-93.865l2.4101-4.2403 42.024-73.947 49.256-85.947h-91.631l-43.465 85.947-3.3222 5.6308-3.3242-5.6308-43.467-85.947z" fill="#fff" stroke-width="2.9115"/>
   </g>
  </clipPath>
  <radialGradient id="radialGradient3117" cx="384.14" cy="340.4" r="12.646" gradientTransform="matrix(1 0 0 .9415 0 19.913)" gradientUnits="userSpaceOnUse" xlink:href="#linearGradient900-5"/>
  <filter id="filter2314" color-interpolation-filters="sRGB">
   <feFlood flood-color="rgb(0,0,0)" flood-opacity=".69804" result="flood"/>
   <feComposite in="flood" in2="SourceGraphic" operator="in" result="composite1"/>
   <feGaussianBlur in="composite1" result="blur" stdDeviation="0.3"/>
   <feOffset dx="0" dy="0" result="offset"/>
   <feComposite in="offset" in2="offset" operator="atop" result="composite2"/>
  </filter>
  <filter id="filter2326" color-interpolation-filters="sRGB">
   <feFlood flood-color="rgb(0,0,0)" flood-opacity=".69804" result="flood"/>
   <feComposite in="flood" in2="SourceGraphic" operator="in" result="composite1"/>
   <feGaussianBlur in="composite1" result="blur" stdDeviation="1"/>
   <feOffset dx="0" dy="0" result="offset"/>
   <feComposite in="offset" in2="offset" operator="atop" result="composite2"/>
  </filter>
  <radialGradient id="radialGradient3119" cx="1068.8" cy="1737.9" r="143.39" gradientTransform="matrix(1 0 0 .9415 0 101.67)" gradientUnits="userSpaceOnUse">
   <stop stop-color="#00d" offset="0"/>
   <stop stop-color="#00d" offset="1"/>
  </radialGradient>
  <clipPath id="clipPath958">
   <rect x="84.75" y="233.58" width="26.458" height="26.458" fill="#4d4d4d" fill-rule="evenodd" stroke-width=".26458"/>
  </clipPath>
  <filter id="filter1440" color-interpolation-filters="sRGB">
   <feTurbulence baseFrequency="0.0087 0.04" numOctaves="5" result="turbulence" seed="1" type="fractalNoise"/>
   <feComposite in="SourceGraphic" in2="turbulence" operator="in" result="composite1"/>
   <feColorMatrix result="color" values="1 0 0 0 0 0 1 0 0 0 0 0 1 0 0 0 0 0 3 -1 "/>
   <feFlood flood-color="rgb(0,0,0)" flood-opacity=".32157" result="flood"/>
   <feMerge result="merge">
    <feMergeNode in="flood"/>
    <feMergeNode in="color"/>
   </feMerge>
   <feComposite in2="SourceGraphic" operator="in" result="composite2"/>
  </filter>
  <clipPath id="clipPath995">
   <rect x="41.266" y="236.25" width="26.458" height="26.458" fill="#4d4d4d" fill-rule="evenodd" stroke-width=".26458"/>
  </clipPath>
  <clipPath id="clipPath988">
   <rect x="55.365" y="226.9" width="26.458" height="26.458" fill="#4d4d4d" fill-rule="evenodd" stroke-width=".26458"/>
  </clipPath>
  <clipPath id="clipPath1001">
   <rect x="52.545" y="237.73" width="26.458" height="26.458" fill="#4d4d4d" fill-rule="evenodd" stroke-width=".26458"/>
  </clipPath>
  <clipPath id="clipPath1007">
   <rect x="25.683" y="187.87" width="26.458" height="26.458" fill="#4d4d4d" fill-rule="evenodd" stroke-width=".26458"/>
  </clipPath>
  <clipPath id="clipPath1013">
   <rect x="43.641" y="228.53" width="26.458" height="26.458" fill="#4d4d4d" fill-rule="evenodd" stroke-width=".26458"/>
  </clipPath>
  <clipPath id="clipPath1019">
   <rect x="71.987" y="233.43" width="26.458" height="26.458" fill="#4d4d4d" fill-rule="evenodd" stroke-width=".26458"/>
  </clipPath>
 </defs>
 <metadata>
  <rdf:RDF>
   <cc:Work rdf:about="">
    <dc:format>image/svg+xml</dc:format>
    <dc:type rdf:resource="http://purl.org/dc/dcmitype/StillImage"/>
    <dc:title/>
   </cc:Work>
  </rdf:RDF>
 </metadata>
 <g transform="translate(16.7 14.445)">
  <g transform="translate(-551.08 -388.27)">
   <g transform="matrix(.33333 0 0 .33334 554.34 343.78)">
    <path d="m-12.255 91.487c-13.628 0-22.941 2.6387-30.185 8.6636-7.2441 6.0248-10.492 13.795-10.492 25.558 0 11.763 3.0684 19.815 9.9539 25.84 6.9573 6.0248 15.747 8.663 28.801 8.663 6.3836 0 11.59-0.77509 16.18-2.1378 4.5766-1.3587 7.5895-2.4662 10.522-4.2499 8e-5 -5e-5 -1.1e-4 -5.3e-4 0-5.3e-4 0.01-5e-3 0.018-0.0102 0.0259-0.0155l-0.0259-0.0196v-33.488h-30.382v13.062h11.512v6.4973c-2.0083 0.50207-5.5644 1.0372-7.8595 1.0372-4.3752 1e-5 -8.6722-1.4317-11.039-3.3683-2.2952-2.0083-3.7073-6.5562-3.7073-11.792s2.2093-9.8142 5.4369-11.751c3.2993-2.0083 8.0545-3.1445 13.075-3.1445 3.5862 0 7.3296 0.18471 10.701 0.68677 2.984 0.37301 5.5832 1.0045 8.4595 2.0242l-0.027-19.195c-2.894-0.91249-5.9895-1.837-9.0992-2.2102-3.5146-0.50207-7.4015-0.65991-11.848-0.65991z" fill="#0ff"/>
    <g transform="translate(1706.2 67.603)" clip-path="url(#clipPath1820)">
     <path d="m-1718.3 22.481c-13.628 0-24.064 3.0124-31.308 9.0372-7.2441 6.0248-10.866 14.918-10.866 26.681 0 11.763 3.4426 20.657 10.328 26.682 6.9573 6.0248 16.963 9.0372 30.017 9.0372 6.3834 0 11.87-0.68157 16.46-2.0443 3.9643-1.1769 7.3725-2.4702 10.123-3.9558l-3.9966-2.9585c-1.6194 0.85814-2.1709 1.0443-3.2195 1.5828-0.5598 0.2875-1.4689 0.80767-4.2297 1.6273-4.5903 1.3628-8.4895 1.7797-14.873 1.7797-13.054 0-20.678-1.8217-27.636-7.8466-6.8855-6.0248-9.1374-12.141-9.1374-23.903 0-11.763 2.4312-17.878 9.6753-23.903 7.244-6.0248 14.902-8.1117 28.53-8.1117 4.4469 0 7.6335 0.11908 11.148 0.62115 1.5959 0.19153 3.661 0.52621 5.4653 0.89814l4.1569-2.6345c-2.7987-0.86162-5.6963-1.4756-8.6956-1.8356-3.5146-0.50207-7.495-0.75292-11.942-0.75292zm22.271 4.686-3.9837 2.5249-0.099 10.962 4.0829 5.0152zm-20.55 13.293c-5.0207 0-11.43 1.5331-14.729 3.5414-3.2276 1.9366-6.7917 6.845-6.6937 14.198 0.094 7.0871 1.0152 10.578 4.6333 13.644 3.9545 3.2595 6.9286 4.2282 12.891 4.2282 0.2635 0 4.8908-0.53302 5.1505-0.54002 0 0 1.8836-0.13691 3.991-0.77876l-4.2881-3.1729c-1.5 0.25877-3.0723 0.39067-4.7201 0.39067-4.3752 0-7.7462-0.96819-10.113-2.9047-2.2952-2.0083-3.4432-5.6307-3.4432-10.867 0-5.2358 1.614-8.822 4.8416-10.759 3.2993-2.0083 7.4586-3.0122 12.479-3.0122 3.5862 0 7.0656 0.25087 10.437 0.75293 2.6102 0.32628 5.1787 0.90127 7.7065 1.7224l-3.9357-4.8338c-1.2382-0.36284-2.4739-0.69513-3.7714-0.85731-3.3709-0.50207-6.8498-0.75293-10.436-0.75293zm-6.8693 10.915 3.9687 3.9688h21.349l3.9682-3.9688zm-1.8713 1.8707v11.966l3.9688-3.9688v-4.0287zm33.028 5.2e-4 -3.9687 3.9682v25.403l3.9687 2.9378v-18.473zm-27.189 9.8676-3.9688 3.9688h7.7701l3.9687-3.9688h-0.896zm9.6407 1.8707-3.9687 3.9688v0.67902l3.9687 2.9368v-5.4865z" fill="url(#radialGradient3147)" filter="url(#filter1702)"/>
     <path d="m-1718.6 28.831c-13.628 0-19.566 1.4254-26.81 7.4502-7.2442 6.0248-9.014 10.42-9.014 22.183 0 11.763 2.6489 15.101 8.7406 21.522 6.9573 6.0248 12.232 7.6755 25.285 7.6755 6.3835 0 9.8548-0.51051 14.445-1.8733 2.7608-0.81962 0.7194-0.13109 2.8835-1.1064 0 0 1.5149-0.52601 4.1098-2.39l0.019 0.0134v-24.316h-19.799v2.4784h11.512v15.693c0 1e-3 -0.01 2e-3 -0.011 3e-3l-6.6848-4.9465v5.1e-4l6.6843 4.9465c-3.7815 1.2108-4.5431 1.109-5.4756 1.3519-1.7515 0.45613-7.5329 0.93689-7.7965 0.93689-5.9627 1e-5 -10.789-1.101-14.743-4.3605-3.6181-3.0666-5.4652-8.6737-5.5594-15.761-0.098-7.3531 4.6567-14.378 7.8843-16.315 3.2993-2.0083 11.296-3.9383 16.316-3.9383 3.5862 0 6.9328-0.0137 10.304 0.48834 1.2022 0.15028 2.4836 0.57922 3.6308 0.91003v-9.4506c-1.3802-0.17555-2.9393-0.41816-4.2432-0.57464-3.5146-0.50207-7.2304-0.62115-11.677-0.62115z" fill="#eee" filter="url(#filter1722)"/>
    </g>
    <g transform="translate(-810.55 619.79)">
     <path d="m798.45-529.66c-13.628 0-24.064 3.0124-31.308 9.0372s-10.866 14.918-10.866 26.681c0 11.763 3.4426 20.657 10.328 26.682 6.9573 6.0248 16.963 9.0372 30.017 9.0372 6.3834 0 11.87-0.68157 16.46-2.0443 3.9643-1.1769 7.3725-2.4702 10.123-3.9558l-3.9966-2.9585c-1.6194 0.85814-2.1709 1.0443-3.2195 1.5828-0.5598 0.2875-1.4689 0.80767-4.2297 1.6273-4.5903 1.3628-8.4895 1.7797-14.873 1.7797-13.054 0-20.678-1.8217-27.636-7.8466-6.8855-6.0248-9.1374-12.141-9.1374-23.903 0-11.763 2.4312-17.878 9.6753-23.903 7.244-6.0248 14.902-8.1116 28.53-8.1116 4.4469 0 7.6335 0.11908 11.148 0.62115 1.5959 0.19153 3.661 0.52621 5.4653 0.89814l4.1569-2.6345c-2.7987-0.86162-5.6963-1.4756-8.6956-1.8356-3.5146-0.50207-7.495-0.75292-11.942-0.75292zm22.271 4.686-3.9837 2.5249-0.099 10.962 4.0829 5.0152zm-20.55 13.293c-5.0207 0-11.43 1.5331-14.729 3.5414-3.2276 1.9366-6.7917 6.845-6.6937 14.198 0.094 7.0871 1.0152 10.578 4.6333 13.644 3.9545 3.2595 6.9286 4.2282 12.891 4.2282 0.2635 0 4.8908-0.53302 5.1505-0.54002 0 0 1.8836-0.13691 3.991-0.77876l-4.2881-3.1729c-1.5 0.25877-3.0723 0.39067-4.7201 0.39067-4.3752 0-7.7462-0.96819-10.113-2.9047-2.2952-2.0083-3.4432-5.6307-3.4432-10.867 0-5.2358 1.614-8.822 4.8416-10.759 3.2993-2.0083 7.4586-3.0122 12.479-3.0122 3.5862 0 7.0656 0.25087 10.437 0.75293 2.6102 0.32628 5.1787 0.90127 7.7065 1.7224l-3.9357-4.8338c-1.2382-0.36284-2.4739-0.69513-3.7714-0.85731-3.3709-0.50207-6.8498-0.75293-10.436-0.75293zm-6.8693 10.915 3.9687 3.9688h21.349l3.9682-3.9688zm-1.8713 1.8707v11.966l3.9688-3.9688v-4.0287zm33.028 5.2e-4 -3.9687 3.9682v25.403l3.9687 2.9378v-18.473zm-27.189 9.8676-3.9688 3.9688h7.7701l3.9687-3.9688h-0.896zm9.6407 1.8707-3.9687 3.9688v0.67902l3.9687 2.9368v-5.4865z" fill="url(#radialGradient3149)"/>
     <path d="m798.18-523.31c-13.628 0-19.566 1.4254-26.81 7.4502-7.2442 6.0248-9.014 10.42-9.014 22.183 0 11.763 2.6489 15.101 8.7406 21.522 6.9573 6.0248 12.232 7.6755 25.285 7.6755 6.3835 0 9.8548-0.51051 14.445-1.8733 2.7608-0.81962 0.7194-0.13109 2.8835-1.1064 0 0 1.5149-0.52601 4.1098-2.39l0.019 0.0134v-24.316h-19.799v2.4784h11.512v15.693c0 1e-3 -0.01 2e-3 -0.011 3e-3l-6.6848-4.9465v5.1e-4l6.6843 4.9465c-3.7815 1.2108-4.5431 1.109-5.4756 1.3519-1.7515 0.45613-7.5329 0.93689-7.7965 0.93689-5.9627 1e-5 -10.789-1.101-14.743-4.3605-3.6181-3.0666-5.4652-8.6737-5.5594-15.761-0.098-7.3531 4.6567-14.378 7.8843-16.315 3.2993-2.0083 11.296-3.9383 16.316-3.9383 3.5862 0 6.9328-0.0137 10.304 0.48834 1.2022 0.15028 2.4836 0.57922 3.6308 0.91003v-9.4506c-1.3802-0.17555-2.9393-0.41816-4.2432-0.57464-3.5146-0.50207-7.2304-0.62115-11.677-0.62115z" fill="#e00"/>
    </g>
   </g>
   <g transform="matrix(.33333 0 0 .33333 581.94 308.94)">
    <g transform="matrix(2.7043 0 0 2.8889 1181.7 1184.3)" fill="#0ff" aria-label="R">
     <path transform="matrix(.097838 0 0 .091586 -333.28 -168.38)" d="m-1242.2-1896.9v260h91.459v-67.922h17.75l29.928 67.922h94.777l-34.508-79.475c0.7279-0.4043 1.4545-0.8108 2.1758-1.2383 15.093-8.6645 24.524-18.432 31.791-33.805 7.5465-15.093 10.693-30.158 10.693-49.443s-3.1469-34.35-10.693-49.443c-7.267-15.373-16.698-25.14-31.791-33.805-15.093-8.9441-31.489-12.791-54.688-12.791h-55.436zm91.459 69.238h31.414c7.8261 0 16.931 2.9273 20.564 6.2813 3.913 3.3541 7.4941 12.694 7.4941 20.52s-3.5811 17.165-7.4941 20.52c-3.6336 3.3539-12.738 6.2813-20.564 6.2813h-31.414v-46.535z" fill="#0ff" stroke-width="2.7126"/>
    </g>
    <g transform="translate(438.97 454.21)" clip-path="url(#clipPath2213)">
     <path d="m-486.62-259.55 3.9688 3.9688h27.993l6.2291-0.0398c6.1379-0.0393 9.1459 0.29436 13.139 2.6608 2.8241 1.778 5.4081 4.0226 7.3308 8.0899 1.9966 3.9934 2.7208 6.9509 2.7208 12.054s-0.72412 8.0606-2.7208 12.054c-1.9228 4.0673-4.5067 6.3114-7.3308 8.0894-0.75916 0.44991-1.4821 0.81915-2.1983 1.1327l4.9687 1.5322c3.679-2.2601 6.4342-5.3118 8.2553-9.1643 1.9967-3.9934 2.9947-8.5415 2.9947-13.644s-0.99799-9.6507-2.9947-13.644c-1.9227-4.0673-4.881-7.247-8.8744-9.5395-3.9933-2.3665-9.059-3.5497-15.197-3.5497h-13.311zm-1.8712 1.8712v67.695l3.9688-3.9688v-59.758zm24.747 15.125 3.9688 3.9688h5.1175c2.0706 0 3.5867 0.44377 4.548 1.3312 1.0353 0.88745 1.5529 2.3663 1.5529 4.4369s-0.51756 3.5495-1.5529 4.4369c-0.96139 0.88739-2.4774 1.3312-4.548 1.3312h-5.1175l-3.9688 3.9688h9.0863c2.0706-1e-5 5.3171-0.29638 7.7752-2.5869 2.0643-2.0567 2.2944-5.0793 2.2944-7.15s-0.23011-5.0927-2.2944-7.1494c-2.4581-2.2906-5.7046-2.5874-7.7752-2.5874zm-1.8712 1.8712v15.731l3.9688-3.9688v-7.7938zm1.8712 30.63 3.4096 3.4096 2.2081-3.4096zm7.8269 1.4568-2.5704 3.9682 0.50125 1.1374 6.1371 13.929 2.5709-3.9688zm19.489 0.15038 6.1459 14.156 6.0678 3.9677-7.199-16.577zm-29.187 0.26407v14.229l3.9688 3.9688v-14.229zm-17.036 16.1-3.9688 3.9688h23.102l-3.9688-3.9688zm35.587 0-2.5714 3.9688h23.964l-6.0694-3.9688z" clip-path="url(#clipPath2117)" filter="url(#filter2092)"/>
     <path d="m-446.61-252.97c-0.58364-3e-3 -1.202 3e-3 -1.8635 0.01l-6.1826 0.0661h-27.218v58.208h13.615v-17.971h13.415l7.9194 17.971h13.559l-5.501-12.671-2.4582-5.6622c1.4953-0.32528 2.9176-0.87839 4.5878-1.8118 2.3564-1.4974 4.5663-3.3674 6.3955-7.0605 1.4822-2.7773 2.4603-5.782 2.4603-10.885 0-5.1026-0.97813-8.1073-2.4603-10.885-1.8292-3.6932-4.0391-5.5632-6.3955-7.0605-3.4123-1.907-5.7869-2.2353-9.8723-2.2495zm-21.649 7.8119h13.603c2.0706 0 6.4398 0.37024 9.4123 3.1285 2.953 2.618 3.3032 7.1836 3.3032 9.2542s-0.35017 6.6367-3.3032 9.2547c-2.9726 2.7583-7.3417 3.128-9.4123 3.128h-13.603v-15.419z" fill="#eee" filter="url(#filter2155)"/>
    </g>
    <g transform="translate(526.52 455.52)">
     <path transform="scale(.26458)" d="m-2170.1-985.92 15 15h105.8l23.543-0.15039c23.198-0.1485 34.567 1.1125 49.66 10.057 10.674 6.72 20.44 15.203 27.707 30.576 7.5464 15.093 10.283 26.271 10.283 45.557s-2.7368 30.465-10.283 45.559c-7.2671 15.373-17.033 23.854-27.707 30.574-2.8693 1.7005-5.6017 3.096-8.3085 4.2812l18.779 5.791c13.905-8.5421 24.318-20.076 31.201-34.637 7.5465-15.093 11.318-32.283 11.318-51.568 0-19.286-3.7719-36.475-11.318-51.568-7.267-15.373-18.448-27.39-33.541-36.055-15.093-8.9441-34.239-13.416-57.438-13.416h-50.31zm-7.0722 7.0723v255.86l15-15v-225.86zm93.531 57.166 15 15h19.342c7.8261 0 13.556 1.6773 17.19 5.0312 3.913 3.3541 5.8691 8.9435 5.8691 16.77 0 7.826-1.9561 13.415-5.8691 16.77-3.6336 3.3539-9.3634 5.0312-17.19 5.0313h-19.342l-15 15h34.342c7.8261-1e-5 20.096-1.1202 29.387-9.7774 7.8022-7.7735 8.6719-19.197 8.6719-27.023s-0.8697-19.248-8.6719-27.021c-9.2904-8.6572-21.561-9.7793-29.387-9.7793zm-7.0722 7.0723v59.457l15-15v-29.457zm7.0722 115.77 12.887 12.887 8.3457-12.887zm29.582 5.5059-9.7149 14.998 1.8945 4.2988 23.195 52.646 9.7167-15zm73.66 0.56836 23.228 53.504 22.934 14.996-27.209-62.654zm-110.31 0.99804v53.777l15 15v-53.777zm-64.387 60.85-15 15h87.314l-15-15zm134.5 0-9.7188 15h90.572l-22.939-15z" fill="url(#radialGradient3145)"/>
     <path d="m-534.16-254.28c-0.58364-3e-3 -1.202 3e-3 -1.8635 0.01l-6.1826 0.0661h-27.218v58.208h13.615v-17.971h13.415l7.9194 17.971h13.559l-5.501-12.671-2.4582-5.6622c1.4953-0.32528 2.9176-0.87839 4.5878-1.8118 2.3564-1.4974 4.5663-3.3674 6.3955-7.0605 1.4822-2.7773 2.4603-5.782 2.4603-10.885 0-5.1026-0.97813-8.1073-2.4603-10.885-1.8292-3.6932-4.0391-5.5632-6.3955-7.0605-3.4123-1.907-5.7869-2.2353-9.8723-2.2495zm-21.649 7.8119h13.603c2.0706 0 6.4398 0.37024 9.4123 3.1285 2.953 2.618 3.3032 7.1836 3.3032 9.2542s-0.35017 6.6367-3.3032 9.2547c-2.9726 2.7583-7.3417 3.128-9.4123 3.128h-13.603v-15.419z" fill="#00e"/>
    </g>
   </g>
   <g transform="matrix(.33333 0 0 .33333 609.16 273.74)">
    <path d="m-23.368 301.59-15.347 39.823-6.0291 15.657-5.1284 13.311h25.118l4.0876-10.666 1.0139-2.6458h18.573l1.0139 2.6458 4.0876 10.666h25.118l-5.1273-13.311-6.0291-15.657-15.347-39.823h-4.5677zm13.002 21.173 6.3758 16.005 1.0537 2.6458h-14.859l1.0542-2.6458z" fill="#0ff"/>
    <g transform="translate(-520.7 658.08)" clip-path="url(#clipPath1850)">
     <path d="m498.02-357.82 2.7606 3.9688h19.099l2.76-3.9688h-1.9363zm-2.1854 1.4914-14.761 38.332-7.0487 18.303-4.2855 11.128 5.7774-3.9688 4.2891-11.128 3.9915-10.366 14.796-38.334zm28.991 0-2.759 3.9667 14.796 38.334 3.9915 10.366 4.2897 11.129 5.7764 3.9682-4.2855-11.129h5.3e-4l-7.0487-18.303zm-15.818 17.236-6.8228 17.128-2.2862 5.7387 5.8172-3.9698 3.2918-8.2636zm2.6458 0v10.634l3.2908 8.261 5.8177 3.9703-2.2856-5.7382zm-4.4674 21.096-5.8157 3.9688h17.921l-5.8156-3.9688zm-6.3583 14.335 2.7332 3.9682h13.538l2.7332-3.9682zm21.186 1.4976-2.7342 3.9693 3.9548 10.316 2.7321-3.9703-1.4847-3.8747zm-23.367 1e-3 -2.4681 6.4389-1.4852 3.8752 2.7321 3.9693 3.9543-10.315zm-21.636 11.813-5.7769 3.9688h24.011l-2.7322-3.9688zm51.136 0-2.7321 3.9688h24.011l-5.7769-3.9688z" filter="url(#filter1964)"/>
     <path d="m501.01-351.2-15.395 39.823-1.9539 5.0741-5.134 13.311h13.771l0.031-0.0822 5.0705-13.229h25.864l5.0705 13.229 0.031 0.0822h13.771l-5.1341-13.311-1.9539-5.0741-15.395-39.823h-8.6429zm9.3214 1.7028 9.9152 24.892 5.27 13.229h-30.37l5.2694-13.229z" fill="#f00" filter="url(#filter1978)"/>
    </g>
    <g transform="translate(-414.43 673.43)">
     <path d="m391.76-373.16 2.7606 3.9688h19.099l2.76-3.9688h-1.9363zm-2.1854 1.4914-14.761 38.332-7.0487 18.303-4.2855 11.128 5.7774-3.9688 4.2891-11.128 3.9915-10.366 14.796-38.334zm28.991 0-2.759 3.9667 14.796 38.334 3.9915 10.366 4.2897 11.129 5.7764 3.9682-4.2855-11.129h5.3e-4l-7.0487-18.303zm-15.818 17.236-6.8228 17.128-2.2862 5.7387 5.8172-3.9698 3.2918-8.2636zm2.6458 0v10.634l3.2908 8.261 5.8177 3.9703-2.2856-5.7382zm-4.4674 21.096-5.8157 3.9688h17.921l-5.8156-3.9688zm-6.3583 14.335 2.7332 3.9682h13.538l2.7332-3.9682zm21.186 1.4976-2.7342 3.9693 3.9548 10.316 2.7321-3.9703-1.4847-3.8747zm-23.367 1e-3 -2.4681 6.4389-1.4852 3.8752 2.7321 3.9693 3.9543-10.315zm-21.636 11.813-5.7769 3.9688h24.011l-2.7322-3.9688zm51.136 0-2.7321 3.9688h24.011l-5.7769-3.9688z" fill="url(#radialGradient3143)"/>
     <path d="m394.74-366.55-15.395 39.823-1.9539 5.0741-5.134 13.311h13.771l0.031-0.0822 5.0705-13.229h25.864l5.0705 13.229 0.031 0.0822h13.771l-5.1341-13.311-1.9539-5.0741-15.395-39.823h-8.6429zm9.3214 1.7028 9.9152 24.891 5.27 13.229h-30.37l5.2694-13.229z" fill="#00c300"/>
    </g>
   </g>
   <g transform="matrix(.33333 0 0 .33333 643.31 241.28)">
    <path d="m-65.772 398.74 26.672 69.268h22.036l26.672-69.268h-25.101l-12.589 36.939-12.59-36.939z" fill="#0ff" stroke-width=".77033"/>
    <g transform="translate(-412.5 489.06)" clip-path="url(#clipPath1902)" stroke-width=".77033">
     <path d="m353.96-84.789 22.414 58.209h16.105l22.414-58.209h-13.585l-16.882 49.533-16.882-49.533z" fill="#eee" filter="url(#filter1876)"/>
     <path d="m346.82-91.404 5.6637 3.9688h15.402l2.9368-3.9688zm51.198 0 2.9368 3.9688h15.402l5.6637-3.9688zm-25.034 1.5265-2.9486 3.9848 13.062 38.325v-12.388zm22.871 0-10.113 29.922v12.385l13.061-38.322zm27.618 0.68523-5.6637 3.9688-23.015 59.769 2.6055 3.9693zm-78.107 1e-3 26.073 67.705 2.605-3.9688-23.015-59.768zm30.845 65.256-2.605 3.9688h21.627l-2.605-3.9688h-14.94z" fill="url(#radialGradient3139)" filter="url(#filter1888)"/>
    </g>
    <g transform="translate(-249.54 508.21)">
     <path transform="scale(.26458)" d="m694.89-417.84 21.406 15h58.213l11.1-15zm193.51 0 11.1 15h58.211l21.406-15zm-94.615 5.7695-11.145 15.061 49.367 144.85v-46.82zm86.443 0-38.221 113.09v46.811l49.365-144.84zm104.38 2.5898-21.406 15-86.986 225.9 9.8477 15.002zm-295.21 4e-3 98.543 255.89 9.8457-15-86.986-225.9zm116.58 246.64-9.8457 15h81.738l-9.8457-15h-56.467z" fill="url(#radialGradient3141)" stroke-width="2.9115"/>
     <path d="m190.99-103.94 22.414 58.209h16.105l22.414-58.209h-13.585l-16.882 49.533-16.882-49.533z" fill="#f48600" stroke-width=".77033"/>
    </g>
   </g>
   <g transform="matrix(.33333 0 0 .33333 668.63 207.66)" stroke-width=".25678">
    <g transform="matrix(2.7 0 0 2.8873 -493.02 88.856)" fill="#0ff" aria-label="I">
     <path d="m165.03 166.16v-23.812h8.9482v23.812z" fill="#0ff" stroke-width=".25678"/>
    </g>
    <g transform="translate(-453.11 539.71)" clip-path="url(#clipPath2119)">
     <g transform="matrix(3 0 0 3 -297.72 -461.25)" fill="url(#radialGradient3133)" filter="url(#filter2017)" aria-label="I">
      <path transform="matrix(.088194 0 0 .088194 157.22 85.312)" d="m877.94 620.28 16.293 16.291h54.527l16.291-16.291zm-7.1738 7.1738v255.65l16.293-16.293v-223.06zm101.46 0-16.291 16.291v223.07l16.291 16.291zm-77.992 246.53-16.295 16.293h87.115l-16.293-16.293z" fill="url(#radialGradient3133)" stroke-width="2.9115"/>
     </g>
     <g transform="matrix(1.4366 0 0 2.4125 75.149 -372)" fill="#eee" filter="url(#filter2093)" aria-label="I">
      <path d="m234.01 163.83v-23.812h8.9482v23.812z" fill="#eee" stroke-width=".25678"/>
     </g>
    </g>
    <g transform="translate(-279.18 334.39)">
     <g transform="matrix(3 0 0 3 -471.65 -255.93)" fill="url(#radialGradient3133)" aria-label="I">
      <path transform="matrix(.088194 0 0 .088194 157.22 85.312)" d="m877.94 620.28 16.293 16.291h54.527l16.291-16.291zm-7.1738 7.1738v255.65l16.293-16.293v-223.06zm101.46 0-16.291 16.291v223.07l16.291 16.291zm-77.992 246.53-16.295 16.293h87.115l-16.293-16.293z" fill="url(#radialGradient3135)" stroke-width="2.9115"/>
     </g>
     <g transform="matrix(1.4366 0 0 2.4125 -98.786 -166.68)" fill="#eee" aria-label="I">
      <path d="m234.01 163.83v-23.812h8.9482v23.812z" fill="#8128d3" stroke-width=".25678"/>
     </g>
    </g>
   </g>
   <g transform="matrix(.33333 0 0 .33333 693.56 173.71)">
    <path d="m-77.617 601.69v16.655h18.192v52.136h24.199v-52.136h18.192v-16.655z" fill="#0ff" stroke-width=".74717"/>
    <g transform="translate(-367 658.4)" clip-path="url(#clipPath2249)">
     <g transform="matrix(3 0 0 3 -439.92 -342.75)" fill="url(#radialGradient3125)" filter="url(#filter2228)" stroke-width=".25678" aria-label="T">
      <path transform="matrix(.088195 0 0 .088194 99.897 -24.544)" d="m1625.8 1354.4 15 15h194.83l15-15zm-7.0722 7.0723v58.807l15-15v-28.807zm238.97 0-15 15v28.805l15 15zm-216.9 50.877-15 15h54.613l15-15h-1.5605zm140.22 0 15 15h54.615l-15-15h-53.057zm-78.531 7.0723-15 15v182.91l15-15zm71.459 0v182.91l15 15v-182.91zm-64.387 189.98-15 15h87.314l-15-15z" fill="url(#radialGradient3123)" stroke-width="2.9115"/>
     </g>
     <path d="m294.67-51.418v6.072h18.192v52.136h13.615v-52.136h18.192v-6.072z" fill="#eee" filter="url(#filter2168)" stroke-width=".38422"/>
    </g>
    <g transform="matrix(2.3723 0 0 .94379 -647.99 517.41)" stroke-width=".25678" aria-label="T">
     <g>
      <g transform="matrix(1.2646 0 0 3.1787 -66.993 -213.77)" fill="url(#radialGradient3125)" stroke-width=".25678" aria-label="T">
       <path transform="matrix(.088195 0 0 .088194 99.897 -24.544)" d="m1625.8 1354.4 15 15h194.83l15-15zm-7.0722 7.0723v58.807l15-15v-28.807zm238.97 0-15 15v28.805l15 15zm-216.9 50.877-15 15h54.613l15-15h-1.5605zm140.22 0 15 15h54.615l-15-15h-53.057zm-78.531 7.0723-15 15v182.91l15-15zm71.459 0v182.91l15 15v-182.91zm-64.387 189.98-15 15h87.314l-15-15z" fill="url(#radialGradient3127)" stroke-width="2.9115"/>
      </g>
      <path transform="matrix(.11153 0 0 .28034 70.495 -273.44)" d="m1543.7 1313.9v22.949h68.758v197.05h51.459v-197.05h68.758v-22.949z" fill="#e00" stroke-width="1.4522"/>
     </g>
    </g>
   </g>
   <g transform="matrix(.33333 0 0 .33334 717.73 130.36)">
    <g transform="matrix(3 0 0 3 -1202.4 -295.03)" fill="#0ff" stroke-width=".25678" aria-label="Y">
     <path transform="matrix(.088194 0 0 .088194 226.73 217.01)" d="m1706.3 1421.1 49.256 85.947 42.023 73.947 2.4102 4.2403v93.865h89.459v-93.865l2.4101-4.2403 42.024-73.947 49.256-85.947h-91.631l-43.465 85.947-3.3222 5.6308-3.3242-5.6308-43.467-85.947z" fill="#0ff" stroke-width="2.9115"/>
    </g>
    <g transform="translate(-341.55 801.79)" clip-path="url(#clipPath2349)">
     <g transform="matrix(3 0 0 3 -844.97 -1056.9)" fill="url(#radialGradient3117)" filter="url(#filter2314)" stroke-width=".25678" aria-label="Y">
      <path transform="matrix(.088194 0 0 .088194 289.87 187.13)" d="m930.12 1602.9 24.994 15h54.85l10.068-15zm187.48 0 10.068 15h54.852l24.994-15zm-88.986 5.1523-10.008 14.91 41.895 80.885 3.3144 5.6152v-30.664zm80.402 0-35.201 70.746v30.668l3.3164-5.6191 41.893-80.885zm-183.59 3.6954 90.119 158.58 15.002-4.3984-3.4863-6.1348-31.795-55.947-44.68-77zm286.78 0-25.158 15.1-44.678 77-31.795 55.947-3.4864 6.1328 15 4.3985zm-107.65 163.86v75.223l14.998 14.998v-85.824zm-71.461 0-15.002 4.3985v85.824l15.002-15.002zm7.0723 82.293-15 15h87.316l-15-15z" fill="url(#radialGradient3117)" stroke-width="2.9115"/>
     </g>
     <path d="m279.19-64.76 13.376 22.74 5.4054 9.511 2.6567 4.6747v21.282h13.616v-21.283l8.0615-14.185 13.375-22.74h-12.49l-12.088 22.74-3.6669 6.2131-3.6675-6.2131-12.088-22.74z" fill="#eee" filter="url(#filter2326)" stroke-width=".77033"/>
    </g>
    <g transform="translate(-316.91 306.31)">
     <g transform="matrix(3 0 0 3 -869.62 -561.39)" fill="url(#radialGradient3117)" stroke-width=".25678" aria-label="Y">
      <path transform="matrix(.088194 0 0 .088194 289.87 187.13)" d="m930.12 1602.9 24.994 15h54.85l10.068-15zm187.48 0 10.068 15h54.852l24.994-15zm-88.986 5.1523-10.008 14.91 41.895 80.885 3.3144 5.6152v-30.664zm80.402 0-35.201 70.746v30.668l3.3164-5.6191 41.893-80.885zm-183.59 3.6954 90.119 158.58 15.002-4.3984-3.4863-6.1348-31.795-55.947-44.68-77zm286.78 0-25.158 15.1-44.678 77-31.795 55.947-3.4864 6.1328 15 4.3985zm-107.65 163.86v75.223l14.998 14.998v-85.824zm-71.461 0-15.002 4.3985v85.824l15.002-15.002zm7.0723 82.293-15 15h87.316l-15-15z" fill="url(#radialGradient3119)" stroke-width="2.9115"/>
     </g>
     <path d="m254.55 430.72 13.376 22.74 5.4054 9.511 2.6567 4.6747v21.282h13.616v-21.283l8.0615-14.185 13.375-22.74h-12.49l-12.088 22.74-3.6669 6.2131-3.6675-6.2131-12.088-22.74z" fill="#00e" stroke-width=".77033"/>
    </g>
   </g>
   <g transform="translate(571.02 -189.76)" fill-rule="evenodd">
    <rect x="-36.635" y="587.4" width="26.458" height="26.458" fill="#808080" stroke-width=".26458"/>
    <g transform="matrix(.98 0 0 .98 -119.43 358.76)" clip-path="url(#clipPath958)">
     <rect x="84.75" y="233.58" width="26.458" height="26.458" fill="#4d4d4d" stroke-width=".26458"/>
     <rect x="84.75" y="233.58" width="26.458" height="26.458" fill="#1a1a1a" filter="url(#filter1440)" stroke-width=".071326"/>
    </g>
   </g>
   <g transform="translate(571.02 -189.76)" fill-rule="evenodd">
    <rect x="-10.177" y="587.4" width="26.458" height="26.458" fill="#808080" stroke-width=".26458"/>
    <g transform="matrix(.98 0 0 .98 -50.353 356.14)" clip-path="url(#clipPath995)">
     <rect x="41.266" y="236.25" width="26.458" height="26.458" fill="#4d4d4d" stroke-width=".26458"/>
     <rect x="41.266" y="236.25" width="26.458" height="26.458" fill="#1a1a1a" filter="url(#filter1440)" stroke-width=".071326"/>
    </g>
   </g>
   <g transform="translate(571.02 -189.76)" fill-rule="evenodd">
    <rect x="16.282" y="587.4" width="26.458" height="26.458" fill="#808080" stroke-width=".26458"/>
    <g transform="matrix(.98 0 0 .98 -37.712 365.31)" clip-path="url(#clipPath988)">
     <rect x="55.365" y="226.9" width="26.458" height="26.458" fill="#4d4d4d" stroke-width=".26458"/>
     <rect x="55.365" y="226.9" width="26.458" height="26.458" fill="#1a1a1a" filter="url(#filter1440)" stroke-width=".071326"/>
    </g>
   </g>
   <g transform="translate(650.39 -216.22)" fill-rule="evenodd">
    <rect x="-36.635" y="613.86" width="26.458" height="26.458" fill="#808080" stroke-width=".26458"/>
    <g transform="matrix(.98 0 0 .98 -87.865 381.15)" clip-path="url(#clipPath1001)">
     <rect x="52.545" y="237.73" width="26.458" height="26.458" fill="#4d4d4d" stroke-width=".26458"/>
     <rect x="52.545" y="237.73" width="26.458" height="26.458" fill="#1a1a1a" filter="url(#filter1440)" stroke-width=".071326"/>
    </g>
   </g>
   <g transform="translate(650.39 -216.22)" fill-rule="evenodd">
    <rect x="-10.177" y="613.86" width="26.458" height="26.458" fill="#808080" stroke-width=".26458"/>
    <g transform="matrix(.98 0 0 .98 -35.082 430.02)" clip-path="url(#clipPath1007)">
     <rect x="25.683" y="187.87" width="26.458" height="26.458" fill="#4d4d4d" stroke-width=".26458"/>
     <rect x="25.683" y="187.87" width="26.458" height="26.458" fill="#1a1a1a" filter="url(#filter1440)" stroke-width=".071326"/>
    </g>
   </g>
   <g transform="translate(650.39 -216.22)" fill-rule="evenodd">
    <rect x="16.282" y="613.86" width="26.458" height="26.458" fill="#808080" stroke-width=".26458"/>
    <g transform="matrix(.98 0 0 .98 -26.222 390.16)" clip-path="url(#clipPath1013)">
     <rect x="43.641" y="228.53" width="26.458" height="26.458" fill="#4d4d4d" stroke-width=".26458"/>
     <rect x="43.641" y="228.53" width="26.458" height="26.458" fill="#1a1a1a" filter="url(#filter1440)" stroke-width=".071326"/>
    </g>
   </g>
   <g transform="translate(729.77 -242.68)" fill-rule="evenodd">
    <rect x="-36.635" y="640.32" width="26.458" height="26.458" fill="#808080" stroke-width=".26458"/>
    <g transform="matrix(.98 0 0 .98 -106.92 411.82)" clip-path="url(#clipPath1019)">
     <rect x="71.987" y="233.43" width="26.458" height="26.458" fill="#4d4d4d" stroke-width=".26458"/>
     <rect x="71.987" y="233.43" width="26.458" height="26.458" fill="#1a1a1a" filter="url(#filter1440)" stroke-width=".071326"/>
    </g>
   </g>
  </g>
 </g>
</svg>
